<svg width="55" height="74" viewBox="0 0 55 74" fill="none" xmlns="http://www.w3.org/2000/svg">
<path d="M51.3489 67.744C52.0918 67.744 52.8042 68.0335 53.3294 68.5486C53.8547 69.0638 54.1498 69.7626 54.1498 70.4911C54.1498 71.2197 53.8547 71.9185 53.3294 72.4337C52.8042 72.9488 52.0918 73.2383 51.3489 73.2383L2.80085 73.2529C2.05802 73.2529 1.34561 72.9635 0.82035 72.4483C0.295088 71.9331 0 71.2344 0 70.5058C0 69.7772 0.295088 69.0785 0.82035 68.5633C1.34561 68.0481 2.05802 67.7587 2.80085 67.7587L51.3489 67.744ZM26.694 0.0256397L27.0749 0C27.7517 2.79946e-05 28.4056 0.240438 28.9157 0.67677C29.4258 1.1131 29.7576 1.71584 29.8496 2.37351L29.8757 2.74712L29.872 52.873L43.7717 39.2472C44.2459 38.782 44.8746 38.4991 45.5435 38.45C46.2124 38.401 46.877 38.589 47.4165 38.9798L47.734 39.2472C48.2078 39.7128 48.4955 40.3297 48.5448 40.9857C48.5942 41.6418 48.4018 42.2934 48.0028 42.8221L47.7302 43.1298L29.0691 61.433C28.5949 61.8982 27.9662 62.1811 27.2973 62.2302C26.6284 62.2792 25.9638 62.0912 25.4243 61.7004L25.1068 61.433L6.42328 43.1335C5.92085 42.6439 5.62617 41.9859 5.59854 41.2917C5.57092 40.5976 5.81241 39.919 6.2744 39.3926C6.73639 38.8661 7.38458 38.5308 8.08848 38.4542C8.79239 38.3776 9.49973 38.5654 10.0681 38.9798L10.3818 39.2436L24.2703 52.8473L24.274 2.74712C24.2741 2.08328 24.5192 1.4419 24.964 0.941601C25.4089 0.4413 26.0234 0.115922 26.694 0.0256397Z" fill="white"/>
</svg>
