<svg width="601" height="606" viewBox="0 0 601 606" fill="none" xmlns="http://www.w3.org/2000/svg">
<path d="M0 4.01944V0H3.36695V4.01944H0Z" fill="#ECE7E2"/>
<path d="M23.0074 4.01944V0H26.3744V4.01944H23.0074Z" fill="#ECE7E2"/>
<path d="M46.015 4.01944V0H49.3819V4.01944H46.015Z" fill="#ECE7E2"/>
<path d="M68.9289 4.01944V0H72.2958V4.01944H68.9289Z" fill="#ECE7E2"/>
<path d="M91.9363 4.01944V0H95.3033V4.01944H91.9363Z" fill="#ECE7E2"/>
<path d="M114.944 4.01944V0H118.311V4.01944H114.944Z" fill="#ECE7E2"/>
<path d="M137.951 4.01944V0H141.318V4.01944H137.951Z" fill="#ECE7E2"/>
<path d="M160.865 4.01944V0H164.232V4.01944H160.865Z" fill="#ECE7E2"/>
<path d="M183.873 4.01944V0H187.24V4.01944H183.873Z" fill="#ECE7E2"/>
<path d="M206.88 4.01944V0H210.247V4.01944H206.88Z" fill="#ECE7E2"/>
<path d="M229.888 4.01944V0H233.255V4.01944H229.888Z" fill="#ECE7E2"/>
<path d="M252.802 4.01944V0H256.169V4.01944H252.802Z" fill="#ECE7E2"/>
<path d="M275.809 4.01944V0H279.176V4.01944H275.809Z" fill="#ECE7E2"/>
<path d="M298.817 4.01944V0H302.184V4.01944H298.817Z" fill="#ECE7E2"/>
<path d="M321.824 4.01944V0H325.191V4.01944H321.824Z" fill="#ECE7E2"/>
<path d="M344.738 4.01944V0H348.105V4.01944H344.738Z" fill="#ECE7E2"/>
<path d="M367.745 4.01944V0H371.112V4.01944H367.745Z" fill="#ECE7E2"/>
<path d="M390.753 4.01944V0H394.12V4.01944H390.753Z" fill="#ECE7E2"/>
<path d="M413.76 4.01944V0H417.127V4.01944H413.76Z" fill="#ECE7E2"/>
<path d="M436.768 4.01944V0H440.135V4.01944H436.768Z" fill="#ECE7E2"/>
<path d="M459.682 4.01944V0H463.049V4.01944H459.682Z" fill="#ECE7E2"/>
<path d="M482.689 4.01944V0H486.056V4.01944H482.689Z" fill="#ECE7E2"/>
<path d="M505.697 4.01944V0H509.064V4.01944H505.697Z" fill="#ECE7E2"/>
<path d="M528.704 4.01944V0H532.071V4.01944H528.704Z" fill="#ECE7E2"/>
<path d="M551.618 4.01944V0H554.985V4.01944H551.618Z" fill="#ECE7E2"/>
<path d="M574.626 4.01944V0H577.993V4.01944H574.626Z" fill="#ECE7E2"/>
<path d="M597.633 4.01944V0H601V4.01944H597.633Z" fill="#ECE7E2"/>
<path d="M0 25.5187V21.4993H3.36695V25.5187H0Z" fill="#ECE7E2"/>
<path d="M23.0074 25.5187V21.4993H26.3744V25.5187H23.0074Z" fill="#ECE7E2"/>
<path d="M46.015 25.5187V21.4993H49.3819V25.5187H46.015Z" fill="#ECE7E2"/>
<path d="M68.9289 25.5187V21.4993H72.2958V25.5187H68.9289Z" fill="#ECE7E2"/>
<path d="M91.9363 25.5187V21.4993H95.3033V25.5187H91.9363Z" fill="#ECE7E2"/>
<path d="M114.944 25.5187V21.4993H118.311V25.5187H114.944Z" fill="#ECE7E2"/>
<path d="M137.951 25.5187V21.4993H141.318V25.5187H137.951Z" fill="#ECE7E2"/>
<path d="M160.865 25.5187V21.4993H164.232V25.5187H160.865Z" fill="#ECE7E2"/>
<path d="M183.873 25.5187V21.4993H187.24V25.5187H183.873Z" fill="#ECE7E2"/>
<path d="M206.88 25.5187V21.4993H210.247V25.5187H206.88Z" fill="#ECE7E2"/>
<path d="M229.888 25.5187V21.4993H233.255V25.5187H229.888Z" fill="#ECE7E2"/>
<path d="M252.802 25.5187V21.4993H256.169V25.5187H252.802Z" fill="#ECE7E2"/>
<path d="M275.809 25.5187V21.4993H279.176V25.5187H275.809Z" fill="#ECE7E2"/>
<path d="M298.817 25.5187V21.4993H302.184V25.5187H298.817Z" fill="#ECE7E2"/>
<path d="M321.824 25.5187V21.4993H325.191V25.5187H321.824Z" fill="#ECE7E2"/>
<path d="M344.738 25.5187V21.4993H348.105V25.5187H344.738Z" fill="#ECE7E2"/>
<path d="M367.745 25.5187V21.4993H371.112V25.5187H367.745Z" fill="#ECE7E2"/>
<path d="M390.753 25.5187V21.4993H394.12V25.5187H390.753Z" fill="#ECE7E2"/>
<path d="M413.76 25.5187V21.4993H417.127V25.5187H413.76Z" fill="#ECE7E2"/>
<path d="M436.768 25.5187V21.4993H440.135V25.5187H436.768Z" fill="#ECE7E2"/>
<path d="M459.682 25.5187V21.4993H463.049V25.5187H459.682Z" fill="#ECE7E2"/>
<path d="M482.689 25.5187V21.4993H486.056V25.5187H482.689Z" fill="#ECE7E2"/>
<path d="M505.697 25.5187V21.4993H509.064V25.5187H505.697Z" fill="#ECE7E2"/>
<path d="M528.704 25.5187V21.4993H532.071V25.5187H528.704Z" fill="#ECE7E2"/>
<path d="M551.618 25.5187V21.4993H554.985V25.5187H551.618Z" fill="#ECE7E2"/>
<path d="M574.626 25.5187V21.4993H577.993V25.5187H574.626Z" fill="#ECE7E2"/>
<path d="M597.633 25.5187V21.4993H601V25.5187H597.633Z" fill="#ECE7E2"/>
<path d="M0 47.018V42.9986H3.36695V47.018H0Z" fill="#ECE7E2"/>
<path d="M23.0074 47.018V42.9986H26.3744V47.018H23.0074Z" fill="#ECE7E2"/>
<path d="M46.015 47.018V42.9986H49.3819V47.018H46.015Z" fill="#ECE7E2"/>
<path d="M68.9289 47.018V42.9986H72.2958V47.018H68.9289Z" fill="#ECE7E2"/>
<path d="M91.9363 47.018V42.9986H95.3033V47.018H91.9363Z" fill="#ECE7E2"/>
<path d="M114.944 47.018V42.9986H118.311V47.018H114.944Z" fill="#ECE7E2"/>
<path d="M137.951 47.018V42.9986H141.318V47.018H137.951Z" fill="#ECE7E2"/>
<path d="M160.865 47.018V42.9986H164.232V47.018H160.865Z" fill="#ECE7E2"/>
<path d="M183.873 47.018V42.9986H187.24V47.018H183.873Z" fill="#ECE7E2"/>
<path d="M206.88 47.018V42.9986H210.247V47.018H206.88Z" fill="#ECE7E2"/>
<path d="M229.888 47.018V42.9986H233.255V47.018H229.888Z" fill="#ECE7E2"/>
<path d="M252.802 47.018V42.9986H256.169V47.018H252.802Z" fill="#ECE7E2"/>
<path d="M275.809 47.018V42.9986H279.176V47.018H275.809Z" fill="#ECE7E2"/>
<path d="M298.817 47.018V42.9986H302.184V47.018H298.817Z" fill="#ECE7E2"/>
<path d="M321.824 47.018V42.9986H325.191V47.018H321.824Z" fill="#ECE7E2"/>
<path d="M344.738 47.018V42.9986H348.105V47.018H344.738Z" fill="#ECE7E2"/>
<path d="M367.745 47.018V42.9986H371.112V47.018H367.745Z" fill="#ECE7E2"/>
<path d="M390.753 47.018V42.9986H394.12V47.018H390.753Z" fill="#ECE7E2"/>
<path d="M413.76 47.018V42.9986H417.127V47.018H413.76Z" fill="#ECE7E2"/>
<path d="M436.768 47.018V42.9986H440.135V47.018H436.768Z" fill="#ECE7E2"/>
<path d="M459.682 47.018V42.9986H463.049V47.018H459.682Z" fill="#ECE7E2"/>
<path d="M482.689 47.018V42.9986H486.056V47.018H482.689Z" fill="#ECE7E2"/>
<path d="M505.697 47.018V42.9986H509.064V47.018H505.697Z" fill="#ECE7E2"/>
<path d="M528.704 47.018V42.9986H532.071V47.018H528.704Z" fill="#ECE7E2"/>
<path d="M551.618 47.018V42.9986H554.985V47.018H551.618Z" fill="#ECE7E2"/>
<path d="M574.626 47.018V42.9986H577.993V47.018H574.626Z" fill="#ECE7E2"/>
<path d="M597.633 47.018V42.9986H601V47.018H597.633Z" fill="#ECE7E2"/>
<path d="M0 68.5174V64.4979H3.36695V68.5174H0Z" fill="#ECE7E2"/>
<path d="M23.0074 68.5174V64.4979H26.3744V68.5174H23.0074Z" fill="#ECE7E2"/>
<path d="M46.015 68.5174V64.4979H49.3819V68.5174H46.015Z" fill="#ECE7E2"/>
<path d="M68.9289 68.5174V64.4979H72.2958V68.5174H68.9289Z" fill="#ECE7E2"/>
<path d="M91.9363 68.5174V64.4979H95.3033V68.5174H91.9363Z" fill="#ECE7E2"/>
<path d="M114.944 68.5174V64.4979H118.311V68.5174H114.944Z" fill="#ECE7E2"/>
<path d="M137.951 68.5174V64.4979H141.318V68.5174H137.951Z" fill="#ECE7E2"/>
<path d="M160.865 68.5174V64.4979H164.232V68.5174H160.865Z" fill="#ECE7E2"/>
<path d="M183.873 68.5174V64.4979H187.24V68.5174H183.873Z" fill="#ECE7E2"/>
<path d="M206.88 68.5174V64.4979H210.247V68.5174H206.88Z" fill="#ECE7E2"/>
<path d="M229.888 68.5174V64.4979H233.255V68.5174H229.888Z" fill="#ECE7E2"/>
<path d="M252.802 68.5174V64.4979H256.169V68.5174H252.802Z" fill="#ECE7E2"/>
<path d="M275.809 68.5174V64.4979H279.176V68.5174H275.809Z" fill="#ECE7E2"/>
<path d="M298.817 68.5174V64.4979H302.184V68.5174H298.817Z" fill="#ECE7E2"/>
<path d="M321.824 68.5174V64.4979H325.191V68.5174H321.824Z" fill="#ECE7E2"/>
<path d="M344.738 68.5174V64.4979H348.105V68.5174H344.738Z" fill="#ECE7E2"/>
<path d="M367.745 68.5174V64.4979H371.112V68.5174H367.745Z" fill="#ECE7E2"/>
<path d="M390.753 68.5174V64.4979H394.12V68.5174H390.753Z" fill="#ECE7E2"/>
<path d="M413.76 68.5174V64.4979H417.127V68.5174H413.76Z" fill="#ECE7E2"/>
<path d="M436.768 68.5174V64.4979H440.135V68.5174H436.768Z" fill="#ECE7E2"/>
<path d="M459.682 68.5174V64.4979H463.049V68.5174H459.682Z" fill="#ECE7E2"/>
<path d="M482.689 68.5174V64.4979H486.056V68.5174H482.689Z" fill="#ECE7E2"/>
<path d="M505.697 68.5174V64.4979H509.064V68.5174H505.697Z" fill="#ECE7E2"/>
<path d="M528.704 68.5174V64.4979H532.071V68.5174H528.704Z" fill="#ECE7E2"/>
<path d="M551.618 68.5174V64.4979H554.985V68.5174H551.618Z" fill="#ECE7E2"/>
<path d="M574.626 68.5174V64.4979H577.993V68.5174H574.626Z" fill="#ECE7E2"/>
<path d="M597.633 68.5174V64.4979H601V68.5174H597.633Z" fill="#ECE7E2"/>
<path d="M0 90.0167V85.9972H3.36695V90.0167H0Z" fill="#ECE7E2"/>
<path d="M23.0074 90.0167V85.9972H26.3744V90.0167H23.0074Z" fill="#ECE7E2"/>
<path d="M46.015 90.0167V85.9972H49.3819V90.0167H46.015Z" fill="#ECE7E2"/>
<path d="M68.9289 90.0167V85.9972H72.2958V90.0167H68.9289Z" fill="#ECE7E2"/>
<path d="M91.9363 90.0167V85.9972H95.3033V90.0167H91.9363Z" fill="#ECE7E2"/>
<path d="M114.944 90.0167V85.9972H118.311V90.0167H114.944Z" fill="#ECE7E2"/>
<path d="M137.951 90.0167V85.9972H141.318V90.0167H137.951Z" fill="#ECE7E2"/>
<path d="M160.865 90.0167V85.9972H164.232V90.0167H160.865Z" fill="#ECE7E2"/>
<path d="M183.873 90.0167V85.9972H187.24V90.0167H183.873Z" fill="#ECE7E2"/>
<path d="M206.88 90.0167V85.9972H210.247V90.0167H206.88Z" fill="#ECE7E2"/>
<path d="M229.888 90.0167V85.9972H233.255V90.0167H229.888Z" fill="#ECE7E2"/>
<path d="M252.802 90.0167V85.9972H256.169V90.0167H252.802Z" fill="#ECE7E2"/>
<path d="M275.809 90.0167V85.9972H279.176V90.0167H275.809Z" fill="#ECE7E2"/>
<path d="M298.817 90.0167V85.9972H302.184V90.0167H298.817Z" fill="#ECE7E2"/>
<path d="M321.824 90.0167V85.9972H325.191V90.0167H321.824Z" fill="#ECE7E2"/>
<path d="M344.738 90.0167V85.9972H348.105V90.0167H344.738Z" fill="#ECE7E2"/>
<path d="M367.745 90.0167V85.9972H371.112V90.0167H367.745Z" fill="#ECE7E2"/>
<path d="M390.753 90.0167V85.9972H394.12V90.0167H390.753Z" fill="#ECE7E2"/>
<path d="M413.76 90.0167V85.9972H417.127V90.0167H413.76Z" fill="#ECE7E2"/>
<path d="M436.768 90.0167V85.9972H440.135V90.0167H436.768Z" fill="#ECE7E2"/>
<path d="M459.682 90.0167V85.9972H463.049V90.0167H459.682Z" fill="#ECE7E2"/>
<path d="M482.689 90.0167V85.9972H486.056V90.0167H482.689Z" fill="#ECE7E2"/>
<path d="M505.697 90.0167V85.9972H509.064V90.0167H505.697Z" fill="#ECE7E2"/>
<path d="M528.704 90.0167V85.9972H532.071V90.0167H528.704Z" fill="#ECE7E2"/>
<path d="M551.618 90.0167V85.9972H554.985V90.0167H551.618Z" fill="#ECE7E2"/>
<path d="M574.626 90.0167V85.9972H577.993V90.0167H574.626Z" fill="#ECE7E2"/>
<path d="M597.633 90.0167V85.9972H601V90.0167H597.633Z" fill="#ECE7E2"/>
<path d="M0 111.516V107.497H3.36695V111.516H0Z" fill="#ECE7E2"/>
<path d="M23.0074 111.516V107.497H26.3744V111.516H23.0074Z" fill="#ECE7E2"/>
<path d="M46.015 111.516V107.497H49.3819V111.516H46.015Z" fill="#ECE7E2"/>
<path d="M68.9289 111.516V107.497H72.2958V111.516H68.9289Z" fill="#ECE7E2"/>
<path d="M91.9363 111.516V107.497H95.3033V111.516H91.9363Z" fill="#ECE7E2"/>
<path d="M114.944 111.516V107.497H118.311V111.516H114.944Z" fill="#ECE7E2"/>
<path d="M137.951 111.516V107.497H141.318V111.516H137.951Z" fill="#ECE7E2"/>
<path d="M160.865 111.516V107.497H164.232V111.516H160.865Z" fill="#ECE7E2"/>
<path d="M183.873 111.516V107.497H187.24V111.516H183.873Z" fill="#ECE7E2"/>
<path d="M206.88 111.516V107.497H210.247V111.516H206.88Z" fill="#ECE7E2"/>
<path d="M229.888 111.516V107.497H233.255V111.516H229.888Z" fill="#ECE7E2"/>
<path d="M252.802 111.516V107.497H256.169V111.516H252.802Z" fill="#ECE7E2"/>
<path d="M275.809 111.516V107.497H279.176V111.516H275.809Z" fill="#ECE7E2"/>
<path d="M298.817 111.516V107.497H302.184V111.516H298.817Z" fill="#ECE7E2"/>
<path d="M321.824 111.516V107.497H325.191V111.516H321.824Z" fill="#ECE7E2"/>
<path d="M344.738 111.516V107.497H348.105V111.516H344.738Z" fill="#ECE7E2"/>
<path d="M367.745 111.516V107.497H371.112V111.516H367.745Z" fill="#ECE7E2"/>
<path d="M390.753 111.516V107.497H394.12V111.516H390.753Z" fill="#ECE7E2"/>
<path d="M413.76 111.516V107.497H417.127V111.516H413.76Z" fill="#ECE7E2"/>
<path d="M436.768 111.516V107.497H440.135V111.516H436.768Z" fill="#ECE7E2"/>
<path d="M459.682 111.516V107.497H463.049V111.516H459.682Z" fill="#ECE7E2"/>
<path d="M482.689 111.516V107.497H486.056V111.516H482.689Z" fill="#ECE7E2"/>
<path d="M505.697 111.516V107.497H509.064V111.516H505.697Z" fill="#ECE7E2"/>
<path d="M528.704 111.516V107.497H532.071V111.516H528.704Z" fill="#ECE7E2"/>
<path d="M551.618 111.516V107.497H554.985V111.516H551.618Z" fill="#ECE7E2"/>
<path d="M574.626 111.516V107.497H577.993V111.516H574.626Z" fill="#ECE7E2"/>
<path d="M597.633 111.516V107.497H601V111.516H597.633Z" fill="#ECE7E2"/>
<path d="M0 133.015V128.996H3.36695V133.015H0Z" fill="#ECE7E2"/>
<path d="M23.0074 133.015V128.996H26.3744V133.015H23.0074Z" fill="#ECE7E2"/>
<path d="M46.015 133.015V128.996H49.3819V133.015H46.015Z" fill="#ECE7E2"/>
<path d="M68.9289 133.015V128.996H72.2958V133.015H68.9289Z" fill="#ECE7E2"/>
<path d="M91.9363 133.015V128.996H95.3033V133.015H91.9363Z" fill="#ECE7E2"/>
<path d="M114.944 133.015V128.996H118.311V133.015H114.944Z" fill="#ECE7E2"/>
<path d="M137.951 133.015V128.996H141.318V133.015H137.951Z" fill="#ECE7E2"/>
<path d="M160.865 133.015V128.996H164.232V133.015H160.865Z" fill="#ECE7E2"/>
<path d="M183.873 133.015V128.996H187.24V133.015H183.873Z" fill="#ECE7E2"/>
<path d="M206.88 133.015V128.996H210.247V133.015H206.88Z" fill="#ECE7E2"/>
<path d="M229.888 133.015V128.996H233.255V133.015H229.888Z" fill="#ECE7E2"/>
<path d="M252.802 133.015V128.996H256.169V133.015H252.802Z" fill="#ECE7E2"/>
<path d="M275.809 133.015V128.996H279.176V133.015H275.809Z" fill="#ECE7E2"/>
<path d="M298.817 133.015V128.996H302.184V133.015H298.817Z" fill="#ECE7E2"/>
<path d="M321.824 133.015V128.996H325.191V133.015H321.824Z" fill="#ECE7E2"/>
<path d="M344.738 133.015V128.996H348.105V133.015H344.738Z" fill="#ECE7E2"/>
<path d="M367.745 133.015V128.996H371.112V133.015H367.745Z" fill="#ECE7E2"/>
<path d="M390.753 133.015V128.996H394.12V133.015H390.753Z" fill="#ECE7E2"/>
<path d="M413.76 133.015V128.996H417.127V133.015H413.76Z" fill="#ECE7E2"/>
<path d="M436.768 133.015V128.996H440.135V133.015H436.768Z" fill="#ECE7E2"/>
<path d="M459.682 133.015V128.996H463.049V133.015H459.682Z" fill="#ECE7E2"/>
<path d="M482.689 133.015V128.996H486.056V133.015H482.689Z" fill="#ECE7E2"/>
<path d="M505.697 133.015V128.996H509.064V133.015H505.697Z" fill="#ECE7E2"/>
<path d="M528.704 133.015V128.996H532.071V133.015H528.704Z" fill="#ECE7E2"/>
<path d="M551.618 133.015V128.996H554.985V133.015H551.618Z" fill="#ECE7E2"/>
<path d="M574.626 133.015V128.996H577.993V133.015H574.626Z" fill="#ECE7E2"/>
<path d="M597.633 133.015V128.996H601V133.015H597.633Z" fill="#ECE7E2"/>
<path d="M0 154.515V150.495H3.36695V154.515H0Z" fill="#ECE7E2"/>
<path d="M23.0074 154.515V150.495H26.3744V154.515H23.0074Z" fill="#ECE7E2"/>
<path d="M46.015 154.515V150.495H49.3819V154.515H46.015Z" fill="#ECE7E2"/>
<path d="M68.9289 154.515V150.495H72.2958V154.515H68.9289Z" fill="#ECE7E2"/>
<path d="M91.9363 154.515V150.495H95.3033V154.515H91.9363Z" fill="#ECE7E2"/>
<path d="M114.944 154.515V150.495H118.311V154.515H114.944Z" fill="#ECE7E2"/>
<path d="M137.951 154.515V150.495H141.318V154.515H137.951Z" fill="#ECE7E2"/>
<path d="M160.865 154.515V150.495H164.232V154.515H160.865Z" fill="#ECE7E2"/>
<path d="M183.873 154.515V150.495H187.24V154.515H183.873Z" fill="#ECE7E2"/>
<path d="M206.88 154.515V150.495H210.247V154.515H206.88Z" fill="#ECE7E2"/>
<path d="M229.888 154.515V150.495H233.255V154.515H229.888Z" fill="#ECE7E2"/>
<path d="M252.802 154.515V150.495H256.169V154.515H252.802Z" fill="#ECE7E2"/>
<path d="M275.809 154.515V150.495H279.176V154.515H275.809Z" fill="#ECE7E2"/>
<path d="M298.817 154.515V150.495H302.184V154.515H298.817Z" fill="#ECE7E2"/>
<path d="M321.824 154.515V150.495H325.191V154.515H321.824Z" fill="#ECE7E2"/>
<path d="M344.738 154.515V150.495H348.105V154.515H344.738Z" fill="#ECE7E2"/>
<path d="M367.745 154.515V150.495H371.112V154.515H367.745Z" fill="#ECE7E2"/>
<path d="M390.753 154.515V150.495H394.12V154.515H390.753Z" fill="#ECE7E2"/>
<path d="M413.76 154.515V150.495H417.127V154.515H413.76Z" fill="#ECE7E2"/>
<path d="M436.768 154.515V150.495H440.135V154.515H436.768Z" fill="#ECE7E2"/>
<path d="M459.682 154.515V150.495H463.049V154.515H459.682Z" fill="#ECE7E2"/>
<path d="M482.689 154.515V150.495H486.056V154.515H482.689Z" fill="#ECE7E2"/>
<path d="M505.697 154.515V150.495H509.064V154.515H505.697Z" fill="#ECE7E2"/>
<path d="M528.704 154.515V150.495H532.071V154.515H528.704Z" fill="#ECE7E2"/>
<path d="M551.618 154.515V150.495H554.985V154.515H551.618Z" fill="#ECE7E2"/>
<path d="M574.626 154.515V150.495H577.993V154.515H574.626Z" fill="#ECE7E2"/>
<path d="M597.633 154.515V150.495H601V154.515H597.633Z" fill="#ECE7E2"/>
<path d="M0 176.014V171.994H3.36695V176.014H0Z" fill="#ECE7E2"/>
<path d="M23.0074 176.014V171.994H26.3744V176.014H23.0074Z" fill="#ECE7E2"/>
<path d="M46.015 176.014V171.994H49.3819V176.014H46.015Z" fill="#ECE7E2"/>
<path d="M68.9289 176.014V171.994H72.2958V176.014H68.9289Z" fill="#ECE7E2"/>
<path d="M91.9363 176.014V171.994H95.3033V176.014H91.9363Z" fill="#ECE7E2"/>
<path d="M114.944 176.014V171.994H118.311V176.014H114.944Z" fill="#ECE7E2"/>
<path d="M137.951 176.014V171.994H141.318V176.014H137.951Z" fill="#ECE7E2"/>
<path d="M160.865 176.014V171.994H164.232V176.014H160.865Z" fill="#ECE7E2"/>
<path d="M183.873 176.014V171.994H187.24V176.014H183.873Z" fill="#ECE7E2"/>
<path d="M206.88 176.014V171.994H210.247V176.014H206.88Z" fill="#ECE7E2"/>
<path d="M229.888 176.014V171.994H233.255V176.014H229.888Z" fill="#ECE7E2"/>
<path d="M252.802 176.014V171.994H256.169V176.014H252.802Z" fill="#ECE7E2"/>
<path d="M275.809 176.014V171.994H279.176V176.014H275.809Z" fill="#ECE7E2"/>
<path d="M298.817 176.014V171.994H302.184V176.014H298.817Z" fill="#ECE7E2"/>
<path d="M321.824 176.014V171.994H325.191V176.014H321.824Z" fill="#ECE7E2"/>
<path d="M344.738 176.014V171.994H348.105V176.014H344.738Z" fill="#ECE7E2"/>
<path d="M367.745 176.014V171.994H371.112V176.014H367.745Z" fill="#ECE7E2"/>
<path d="M390.753 176.014V171.994H394.12V176.014H390.753Z" fill="#ECE7E2"/>
<path d="M413.76 176.014V171.994H417.127V176.014H413.76Z" fill="#ECE7E2"/>
<path d="M436.768 176.014V171.994H440.135V176.014H436.768Z" fill="#ECE7E2"/>
<path d="M459.682 176.014V171.994H463.049V176.014H459.682Z" fill="#ECE7E2"/>
<path d="M482.689 176.014V171.994H486.056V176.014H482.689Z" fill="#ECE7E2"/>
<path d="M505.697 176.014V171.994H509.064V176.014H505.697Z" fill="#ECE7E2"/>
<path d="M528.704 176.014V171.994H532.071V176.014H528.704Z" fill="#ECE7E2"/>
<path d="M551.618 176.014V171.994H554.985V176.014H551.618Z" fill="#ECE7E2"/>
<path d="M574.626 176.014V171.994H577.993V176.014H574.626Z" fill="#ECE7E2"/>
<path d="M597.633 176.014V171.994H601V176.014H597.633Z" fill="#ECE7E2"/>
<path d="M0 197.513V193.494H3.36695V197.513H0Z" fill="#ECE7E2"/>
<path d="M23.0074 197.513V193.494H26.3744V197.513H23.0074Z" fill="#ECE7E2"/>
<path d="M46.015 197.513V193.494H49.3819V197.513H46.015Z" fill="#ECE7E2"/>
<path d="M68.9289 197.513V193.494H72.2958V197.513H68.9289Z" fill="#ECE7E2"/>
<path d="M91.9363 197.513V193.494H95.3033V197.513H91.9363Z" fill="#ECE7E2"/>
<path d="M114.944 197.513V193.494H118.311V197.513H114.944Z" fill="#ECE7E2"/>
<path d="M137.951 197.513V193.494H141.318V197.513H137.951Z" fill="#ECE7E2"/>
<path d="M160.865 197.513V193.494H164.232V197.513H160.865Z" fill="#ECE7E2"/>
<path d="M183.873 197.513V193.494H187.24V197.513H183.873Z" fill="#ECE7E2"/>
<path d="M206.88 197.513V193.494H210.247V197.513H206.88Z" fill="#ECE7E2"/>
<path d="M229.888 197.513V193.494H233.255V197.513H229.888Z" fill="#ECE7E2"/>
<path d="M252.802 197.513V193.494H256.169V197.513H252.802Z" fill="#ECE7E2"/>
<path d="M275.809 197.513V193.494H279.176V197.513H275.809Z" fill="#ECE7E2"/>
<path d="M298.817 197.513V193.494H302.184V197.513H298.817Z" fill="#ECE7E2"/>
<path d="M321.824 197.513V193.494H325.191V197.513H321.824Z" fill="#ECE7E2"/>
<path d="M344.738 197.513V193.494H348.105V197.513H344.738Z" fill="#ECE7E2"/>
<path d="M367.745 197.513V193.494H371.112V197.513H367.745Z" fill="#ECE7E2"/>
<path d="M390.753 197.513V193.494H394.12V197.513H390.753Z" fill="#ECE7E2"/>
<path d="M413.76 197.513V193.494H417.127V197.513H413.76Z" fill="#ECE7E2"/>
<path d="M436.768 197.513V193.494H440.135V197.513H436.768Z" fill="#ECE7E2"/>
<path d="M459.682 197.513V193.494H463.049V197.513H459.682Z" fill="#ECE7E2"/>
<path d="M482.689 197.513V193.494H486.056V197.513H482.689Z" fill="#ECE7E2"/>
<path d="M505.697 197.513V193.494H509.064V197.513H505.697Z" fill="#ECE7E2"/>
<path d="M528.704 197.513V193.494H532.071V197.513H528.704Z" fill="#ECE7E2"/>
<path d="M551.618 197.513V193.494H554.985V197.513H551.618Z" fill="#ECE7E2"/>
<path d="M574.626 197.513V193.494H577.993V197.513H574.626Z" fill="#ECE7E2"/>
<path d="M597.633 197.513V193.494H601V197.513H597.633Z" fill="#ECE7E2"/>
<path d="M0 219.012V214.993H3.36695V219.012H0Z" fill="#ECE7E2"/>
<path d="M23.0074 219.012V214.993H26.3744V219.012H23.0074Z" fill="#ECE7E2"/>
<path d="M46.015 219.012V214.993H49.3819V219.012H46.015Z" fill="#ECE7E2"/>
<path d="M68.9289 219.012V214.993H72.2958V219.012H68.9289Z" fill="#ECE7E2"/>
<path d="M91.9363 219.012V214.993H95.3033V219.012H91.9363Z" fill="#ECE7E2"/>
<path d="M114.944 219.012V214.993H118.311V219.012H114.944Z" fill="#ECE7E2"/>
<path d="M137.951 219.012V214.993H141.318V219.012H137.951Z" fill="#ECE7E2"/>
<path d="M160.865 219.012V214.993H164.232V219.012H160.865Z" fill="#ECE7E2"/>
<path d="M183.873 219.012V214.993H187.24V219.012H183.873Z" fill="#ECE7E2"/>
<path d="M206.88 219.012V214.993H210.247V219.012H206.88Z" fill="#ECE7E2"/>
<path d="M229.888 219.012V214.993H233.255V219.012H229.888Z" fill="#ECE7E2"/>
<path d="M252.802 219.012V214.993H256.169V219.012H252.802Z" fill="#ECE7E2"/>
<path d="M275.809 219.012V214.993H279.176V219.012H275.809Z" fill="#ECE7E2"/>
<path d="M298.817 219.012V214.993H302.184V219.012H298.817Z" fill="#ECE7E2"/>
<path d="M321.824 219.012V214.993H325.191V219.012H321.824Z" fill="#ECE7E2"/>
<path d="M344.738 219.012V214.993H348.105V219.012H344.738Z" fill="#ECE7E2"/>
<path d="M367.745 219.012V214.993H371.112V219.012H367.745Z" fill="#ECE7E2"/>
<path d="M390.753 219.012V214.993H394.12V219.012H390.753Z" fill="#ECE7E2"/>
<path d="M413.76 219.012V214.993H417.127V219.012H413.76Z" fill="#ECE7E2"/>
<path d="M436.768 219.012V214.993H440.135V219.012H436.768Z" fill="#ECE7E2"/>
<path d="M459.682 219.012V214.993H463.049V219.012H459.682Z" fill="#ECE7E2"/>
<path d="M482.689 219.012V214.993H486.056V219.012H482.689Z" fill="#ECE7E2"/>
<path d="M505.697 219.012V214.993H509.064V219.012H505.697Z" fill="#ECE7E2"/>
<path d="M528.704 219.012V214.993H532.071V219.012H528.704Z" fill="#ECE7E2"/>
<path d="M551.618 219.012V214.993H554.985V219.012H551.618Z" fill="#ECE7E2"/>
<path d="M574.626 219.012V214.993H577.993V219.012H574.626Z" fill="#ECE7E2"/>
<path d="M597.633 219.012V214.993H601V219.012H597.633Z" fill="#ECE7E2"/>
<path d="M0 240.512V236.492H3.36695V240.512H0Z" fill="#ECE7E2"/>
<path d="M23.0074 240.512V236.492H26.3744V240.512H23.0074Z" fill="#ECE7E2"/>
<path d="M46.015 240.512V236.492H49.3819V240.512H46.015Z" fill="#ECE7E2"/>
<path d="M68.9289 240.512V236.492H72.2958V240.512H68.9289Z" fill="#ECE7E2"/>
<path d="M91.9363 240.512V236.492H95.3033V240.512H91.9363Z" fill="#ECE7E2"/>
<path d="M114.944 240.512V236.492H118.311V240.512H114.944Z" fill="#ECE7E2"/>
<path d="M137.951 240.512V236.492H141.318V240.512H137.951Z" fill="#ECE7E2"/>
<path d="M160.865 240.512V236.492H164.232V240.512H160.865Z" fill="#ECE7E2"/>
<path d="M183.873 240.512V236.492H187.24V240.512H183.873Z" fill="#ECE7E2"/>
<path d="M206.88 240.512V236.492H210.247V240.512H206.88Z" fill="#ECE7E2"/>
<path d="M229.888 240.512V236.492H233.255V240.512H229.888Z" fill="#ECE7E2"/>
<path d="M252.802 240.512V236.492H256.169V240.512H252.802Z" fill="#ECE7E2"/>
<path d="M275.809 240.512V236.492H279.176V240.512H275.809Z" fill="#ECE7E2"/>
<path d="M298.817 240.512V236.492H302.184V240.512H298.817Z" fill="#ECE7E2"/>
<path d="M321.824 240.512V236.492H325.191V240.512H321.824Z" fill="#ECE7E2"/>
<path d="M344.738 240.512V236.492H348.105V240.512H344.738Z" fill="#ECE7E2"/>
<path d="M367.745 240.512V236.492H371.112V240.512H367.745Z" fill="#ECE7E2"/>
<path d="M390.753 240.512V236.492H394.12V240.512H390.753Z" fill="#ECE7E2"/>
<path d="M413.76 240.512V236.492H417.127V240.512H413.76Z" fill="#ECE7E2"/>
<path d="M436.768 240.512V236.492H440.135V240.512H436.768Z" fill="#ECE7E2"/>
<path d="M459.682 240.512V236.492H463.049V240.512H459.682Z" fill="#ECE7E2"/>
<path d="M482.689 240.512V236.492H486.056V240.512H482.689Z" fill="#ECE7E2"/>
<path d="M505.697 240.512V236.492H509.064V240.512H505.697Z" fill="#ECE7E2"/>
<path d="M528.704 240.512V236.492H532.071V240.512H528.704Z" fill="#ECE7E2"/>
<path d="M551.618 240.512V236.492H554.985V240.512H551.618Z" fill="#ECE7E2"/>
<path d="M574.626 240.512V236.492H577.993V240.512H574.626Z" fill="#ECE7E2"/>
<path d="M597.633 240.512V236.492H601V240.512H597.633Z" fill="#ECE7E2"/>
<path d="M0 262.011V257.992H3.36695V262.011H0Z" fill="#ECE7E2"/>
<path d="M23.0074 262.011V257.992H26.3744V262.011H23.0074Z" fill="#ECE7E2"/>
<path d="M46.015 262.011V257.992H49.3819V262.011H46.015Z" fill="#ECE7E2"/>
<path d="M68.9289 262.011V257.992H72.2958V262.011H68.9289Z" fill="#ECE7E2"/>
<path d="M91.9363 262.011V257.992H95.3033V262.011H91.9363Z" fill="#ECE7E2"/>
<path d="M114.944 262.011V257.992H118.311V262.011H114.944Z" fill="#ECE7E2"/>
<path d="M137.951 262.011V257.992H141.318V262.011H137.951Z" fill="#ECE7E2"/>
<path d="M160.865 262.011V257.992H164.232V262.011H160.865Z" fill="#ECE7E2"/>
<path d="M183.873 262.011V257.992H187.24V262.011H183.873Z" fill="#ECE7E2"/>
<path d="M206.88 262.011V257.992H210.247V262.011H206.88Z" fill="#ECE7E2"/>
<path d="M229.888 262.011V257.992H233.255V262.011H229.888Z" fill="#ECE7E2"/>
<path d="M252.802 262.011V257.992H256.169V262.011H252.802Z" fill="#ECE7E2"/>
<path d="M275.809 262.011V257.992H279.176V262.011H275.809Z" fill="#ECE7E2"/>
<path d="M298.817 262.011V257.992H302.184V262.011H298.817Z" fill="#ECE7E2"/>
<path d="M321.824 262.011V257.992H325.191V262.011H321.824Z" fill="#ECE7E2"/>
<path d="M344.738 262.011V257.992H348.105V262.011H344.738Z" fill="#ECE7E2"/>
<path d="M367.745 262.011V257.992H371.112V262.011H367.745Z" fill="#ECE7E2"/>
<path d="M390.753 262.011V257.992H394.12V262.011H390.753Z" fill="#ECE7E2"/>
<path d="M413.76 262.011V257.992H417.127V262.011H413.76Z" fill="#ECE7E2"/>
<path d="M436.768 262.011V257.992H440.135V262.011H436.768Z" fill="#ECE7E2"/>
<path d="M459.682 262.011V257.992H463.049V262.011H459.682Z" fill="#ECE7E2"/>
<path d="M482.689 262.011V257.992H486.056V262.011H482.689Z" fill="#ECE7E2"/>
<path d="M505.697 262.011V257.992H509.064V262.011H505.697Z" fill="#ECE7E2"/>
<path d="M528.704 262.011V257.992H532.071V262.011H528.704Z" fill="#ECE7E2"/>
<path d="M551.618 262.011V257.992H554.985V262.011H551.618Z" fill="#ECE7E2"/>
<path d="M574.626 262.011V257.992H577.993V262.011H574.626Z" fill="#ECE7E2"/>
<path d="M597.633 262.011V257.992H601V262.011H597.633Z" fill="#ECE7E2"/>
<path d="M0 283.51V279.491H3.36695V283.51H0Z" fill="#ECE7E2"/>
<path d="M23.0074 283.51V279.491H26.3744V283.51H23.0074Z" fill="#ECE7E2"/>
<path d="M46.015 283.51V279.491H49.3819V283.51H46.015Z" fill="#ECE7E2"/>
<path d="M68.9289 283.51V279.491H72.2958V283.51H68.9289Z" fill="#ECE7E2"/>
<path d="M91.9363 283.51V279.491H95.3033V283.51H91.9363Z" fill="#ECE7E2"/>
<path d="M114.944 283.51V279.491H118.311V283.51H114.944Z" fill="#ECE7E2"/>
<path d="M137.951 283.51V279.491H141.318V283.51H137.951Z" fill="#ECE7E2"/>
<path d="M160.865 283.51V279.491H164.232V283.51H160.865Z" fill="#ECE7E2"/>
<path d="M183.873 283.51V279.491H187.24V283.51H183.873Z" fill="#ECE7E2"/>
<path d="M206.88 283.51V279.491H210.247V283.51H206.88Z" fill="#ECE7E2"/>
<path d="M229.888 283.51V279.491H233.255V283.51H229.888Z" fill="#ECE7E2"/>
<path d="M252.802 283.51V279.491H256.169V283.51H252.802Z" fill="#ECE7E2"/>
<path d="M275.809 283.51V279.491H279.176V283.51H275.809Z" fill="#ECE7E2"/>
<path d="M298.817 283.51V279.491H302.184V283.51H298.817Z" fill="#ECE7E2"/>
<path d="M321.824 283.51V279.491H325.191V283.51H321.824Z" fill="#ECE7E2"/>
<path d="M344.738 283.51V279.491H348.105V283.51H344.738Z" fill="#ECE7E2"/>
<path d="M367.745 283.51V279.491H371.112V283.51H367.745Z" fill="#ECE7E2"/>
<path d="M390.753 283.51V279.491H394.12V283.51H390.753Z" fill="#ECE7E2"/>
<path d="M413.76 283.51V279.491H417.127V283.51H413.76Z" fill="#ECE7E2"/>
<path d="M436.768 283.51V279.491H440.135V283.51H436.768Z" fill="#ECE7E2"/>
<path d="M459.682 283.51V279.491H463.049V283.51H459.682Z" fill="#ECE7E2"/>
<path d="M482.689 283.51V279.491H486.056V283.51H482.689Z" fill="#ECE7E2"/>
<path d="M505.697 283.51V279.491H509.064V283.51H505.697Z" fill="#ECE7E2"/>
<path d="M528.704 283.51V279.491H532.071V283.51H528.704Z" fill="#ECE7E2"/>
<path d="M551.618 283.51V279.491H554.985V283.51H551.618Z" fill="#ECE7E2"/>
<path d="M574.626 283.51V279.491H577.993V283.51H574.626Z" fill="#ECE7E2"/>
<path d="M597.633 283.51V279.491H601V283.51H597.633Z" fill="#ECE7E2"/>
<path d="M0 305.01V300.99H3.36695V305.01H0Z" fill="#ECE7E2"/>
<path d="M23.0074 305.01V300.99H26.3744V305.01H23.0074Z" fill="#ECE7E2"/>
<path d="M46.015 305.01V300.99H49.3819V305.01H46.015Z" fill="#ECE7E2"/>
<path d="M68.9289 305.01V300.99H72.2958V305.01H68.9289Z" fill="#ECE7E2"/>
<path d="M91.9363 305.01V300.99H95.3033V305.01H91.9363Z" fill="#ECE7E2"/>
<path d="M114.944 305.01V300.99H118.311V305.01H114.944Z" fill="#ECE7E2"/>
<path d="M137.951 305.01V300.99H141.318V305.01H137.951Z" fill="#ECE7E2"/>
<path d="M160.865 305.01V300.99H164.232V305.01H160.865Z" fill="#ECE7E2"/>
<path d="M183.873 305.01V300.99H187.24V305.01H183.873Z" fill="#ECE7E2"/>
<path d="M206.88 305.01V300.99H210.247V305.01H206.88Z" fill="#ECE7E2"/>
<path d="M229.888 305.01V300.99H233.255V305.01H229.888Z" fill="#ECE7E2"/>
<path d="M252.802 305.01V300.99H256.169V305.01H252.802Z" fill="#ECE7E2"/>
<path d="M275.809 305.01V300.99H279.176V305.01H275.809Z" fill="#ECE7E2"/>
<path d="M298.817 305.01V300.99H302.184V305.01H298.817Z" fill="#ECE7E2"/>
<path d="M321.824 305.01V300.99H325.191V305.01H321.824Z" fill="#ECE7E2"/>
<path d="M344.738 305.01V300.99H348.105V305.01H344.738Z" fill="#ECE7E2"/>
<path d="M367.745 305.01V300.99H371.112V305.01H367.745Z" fill="#ECE7E2"/>
<path d="M390.753 305.01V300.99H394.12V305.01H390.753Z" fill="#ECE7E2"/>
<path d="M413.76 305.01V300.99H417.127V305.01H413.76Z" fill="#ECE7E2"/>
<path d="M436.768 305.01V300.99H440.135V305.01H436.768Z" fill="#ECE7E2"/>
<path d="M459.682 305.01V300.99H463.049V305.01H459.682Z" fill="#ECE7E2"/>
<path d="M482.689 305.01V300.99H486.056V305.01H482.689Z" fill="#ECE7E2"/>
<path d="M505.697 305.01V300.99H509.064V305.01H505.697Z" fill="#ECE7E2"/>
<path d="M528.704 305.01V300.99H532.071V305.01H528.704Z" fill="#ECE7E2"/>
<path d="M551.618 305.01V300.99H554.985V305.01H551.618Z" fill="#ECE7E2"/>
<path d="M574.626 305.01V300.99H577.993V305.01H574.626Z" fill="#ECE7E2"/>
<path d="M597.633 305.01V300.99H601V305.01H597.633Z" fill="#ECE7E2"/>
<path d="M0 326.509V322.49H3.36695V326.509H0Z" fill="#ECE7E2"/>
<path d="M23.0074 326.509V322.49H26.3744V326.509H23.0074Z" fill="#ECE7E2"/>
<path d="M46.015 326.509V322.49H49.3819V326.509H46.015Z" fill="#ECE7E2"/>
<path d="M68.9289 326.509V322.49H72.2958V326.509H68.9289Z" fill="#ECE7E2"/>
<path d="M91.9363 326.509V322.49H95.3033V326.509H91.9363Z" fill="#ECE7E2"/>
<path d="M114.944 326.509V322.49H118.311V326.509H114.944Z" fill="#ECE7E2"/>
<path d="M137.951 326.509V322.49H141.318V326.509H137.951Z" fill="#ECE7E2"/>
<path d="M160.865 326.509V322.49H164.232V326.509H160.865Z" fill="#ECE7E2"/>
<path d="M183.873 326.509V322.49H187.24V326.509H183.873Z" fill="#ECE7E2"/>
<path d="M206.88 326.509V322.49H210.247V326.509H206.88Z" fill="#ECE7E2"/>
<path d="M229.888 326.509V322.49H233.255V326.509H229.888Z" fill="#ECE7E2"/>
<path d="M252.802 326.509V322.49H256.169V326.509H252.802Z" fill="#ECE7E2"/>
<path d="M275.809 326.509V322.49H279.176V326.509H275.809Z" fill="#ECE7E2"/>
<path d="M298.817 326.509V322.49H302.184V326.509H298.817Z" fill="#ECE7E2"/>
<path d="M321.824 326.509V322.49H325.191V326.509H321.824Z" fill="#ECE7E2"/>
<path d="M344.738 326.509V322.49H348.105V326.509H344.738Z" fill="#ECE7E2"/>
<path d="M367.745 326.509V322.49H371.112V326.509H367.745Z" fill="#ECE7E2"/>
<path d="M390.753 326.509V322.49H394.12V326.509H390.753Z" fill="#ECE7E2"/>
<path d="M413.76 326.509V322.49H417.127V326.509H413.76Z" fill="#ECE7E2"/>
<path d="M436.768 326.509V322.49H440.135V326.509H436.768Z" fill="#ECE7E2"/>
<path d="M459.682 326.509V322.49H463.049V326.509H459.682Z" fill="#ECE7E2"/>
<path d="M482.689 326.509V322.49H486.056V326.509H482.689Z" fill="#ECE7E2"/>
<path d="M505.697 326.509V322.49H509.064V326.509H505.697Z" fill="#ECE7E2"/>
<path d="M528.704 326.509V322.49H532.071V326.509H528.704Z" fill="#ECE7E2"/>
<path d="M551.618 326.509V322.49H554.985V326.509H551.618Z" fill="#ECE7E2"/>
<path d="M574.626 326.509V322.49H577.993V326.509H574.626Z" fill="#ECE7E2"/>
<path d="M597.633 326.509V322.49H601V326.509H597.633Z" fill="#ECE7E2"/>
<path d="M0 348.008V343.989H3.36695V348.008H0Z" fill="#ECE7E2"/>
<path d="M23.0074 348.008V343.989H26.3744V348.008H23.0074Z" fill="#ECE7E2"/>
<path d="M46.015 348.008V343.989H49.3819V348.008H46.015Z" fill="#ECE7E2"/>
<path d="M68.9289 348.008V343.989H72.2958V348.008H68.9289Z" fill="#ECE7E2"/>
<path d="M91.9363 348.008V343.989H95.3033V348.008H91.9363Z" fill="#ECE7E2"/>
<path d="M114.944 348.008V343.989H118.311V348.008H114.944Z" fill="#ECE7E2"/>
<path d="M137.951 348.008V343.989H141.318V348.008H137.951Z" fill="#ECE7E2"/>
<path d="M160.865 348.008V343.989H164.232V348.008H160.865Z" fill="#ECE7E2"/>
<path d="M183.873 348.008V343.989H187.24V348.008H183.873Z" fill="#ECE7E2"/>
<path d="M206.88 348.008V343.989H210.247V348.008H206.88Z" fill="#ECE7E2"/>
<path d="M229.888 348.008V343.989H233.255V348.008H229.888Z" fill="#ECE7E2"/>
<path d="M252.802 348.008V343.989H256.169V348.008H252.802Z" fill="#ECE7E2"/>
<path d="M275.809 348.008V343.989H279.176V348.008H275.809Z" fill="#ECE7E2"/>
<path d="M298.817 348.008V343.989H302.184V348.008H298.817Z" fill="#ECE7E2"/>
<path d="M321.824 348.008V343.989H325.191V348.008H321.824Z" fill="#ECE7E2"/>
<path d="M344.738 348.008V343.989H348.105V348.008H344.738Z" fill="#ECE7E2"/>
<path d="M367.745 348.008V343.989H371.112V348.008H367.745Z" fill="#ECE7E2"/>
<path d="M390.753 348.008V343.989H394.12V348.008H390.753Z" fill="#ECE7E2"/>
<path d="M413.76 348.008V343.989H417.127V348.008H413.76Z" fill="#ECE7E2"/>
<path d="M436.768 348.008V343.989H440.135V348.008H436.768Z" fill="#ECE7E2"/>
<path d="M459.682 348.008V343.989H463.049V348.008H459.682Z" fill="#ECE7E2"/>
<path d="M482.689 348.008V343.989H486.056V348.008H482.689Z" fill="#ECE7E2"/>
<path d="M505.697 348.008V343.989H509.064V348.008H505.697Z" fill="#ECE7E2"/>
<path d="M528.704 348.008V343.989H532.071V348.008H528.704Z" fill="#ECE7E2"/>
<path d="M551.618 348.008V343.989H554.985V348.008H551.618Z" fill="#ECE7E2"/>
<path d="M574.626 348.008V343.989H577.993V348.008H574.626Z" fill="#ECE7E2"/>
<path d="M597.633 348.008V343.989H601V348.008H597.633Z" fill="#ECE7E2"/>
<path d="M0 369.508V365.488H3.36695V369.508H0Z" fill="#ECE7E2"/>
<path d="M23.0074 369.508V365.488H26.3744V369.508H23.0074Z" fill="#ECE7E2"/>
<path d="M46.015 369.508V365.488H49.3819V369.508H46.015Z" fill="#ECE7E2"/>
<path d="M68.9289 369.508V365.488H72.2958V369.508H68.9289Z" fill="#ECE7E2"/>
<path d="M91.9363 369.508V365.488H95.3033V369.508H91.9363Z" fill="#ECE7E2"/>
<path d="M114.944 369.508V365.488H118.311V369.508H114.944Z" fill="#ECE7E2"/>
<path d="M137.951 369.508V365.488H141.318V369.508H137.951Z" fill="#ECE7E2"/>
<path d="M160.865 369.508V365.488H164.232V369.508H160.865Z" fill="#ECE7E2"/>
<path d="M183.873 369.508V365.488H187.24V369.508H183.873Z" fill="#ECE7E2"/>
<path d="M206.88 369.508V365.488H210.247V369.508H206.88Z" fill="#ECE7E2"/>
<path d="M229.888 369.508V365.488H233.255V369.508H229.888Z" fill="#ECE7E2"/>
<path d="M252.802 369.508V365.488H256.169V369.508H252.802Z" fill="#ECE7E2"/>
<path d="M275.809 369.508V365.488H279.176V369.508H275.809Z" fill="#ECE7E2"/>
<path d="M298.817 369.508V365.488H302.184V369.508H298.817Z" fill="#ECE7E2"/>
<path d="M321.824 369.508V365.488H325.191V369.508H321.824Z" fill="#ECE7E2"/>
<path d="M344.738 369.508V365.488H348.105V369.508H344.738Z" fill="#ECE7E2"/>
<path d="M367.745 369.508V365.488H371.112V369.508H367.745Z" fill="#ECE7E2"/>
<path d="M390.753 369.508V365.488H394.12V369.508H390.753Z" fill="#ECE7E2"/>
<path d="M413.76 369.508V365.488H417.127V369.508H413.76Z" fill="#ECE7E2"/>
<path d="M436.768 369.508V365.488H440.135V369.508H436.768Z" fill="#ECE7E2"/>
<path d="M459.682 369.508V365.488H463.049V369.508H459.682Z" fill="#ECE7E2"/>
<path d="M482.689 369.508V365.488H486.056V369.508H482.689Z" fill="#ECE7E2"/>
<path d="M505.697 369.508V365.488H509.064V369.508H505.697Z" fill="#ECE7E2"/>
<path d="M528.704 369.508V365.488H532.071V369.508H528.704Z" fill="#ECE7E2"/>
<path d="M551.618 369.508V365.488H554.985V369.508H551.618Z" fill="#ECE7E2"/>
<path d="M574.626 369.508V365.488H577.993V369.508H574.626Z" fill="#ECE7E2"/>
<path d="M597.633 369.508V365.488H601V369.508H597.633Z" fill="#ECE7E2"/>
<path d="M0 391.007V386.988H3.36695V391.007H0Z" fill="#ECE7E2"/>
<path d="M23.0074 391.007V386.988H26.3744V391.007H23.0074Z" fill="#ECE7E2"/>
<path d="M46.015 391.007V386.988H49.3819V391.007H46.015Z" fill="#ECE7E2"/>
<path d="M68.9289 391.007V386.988H72.2958V391.007H68.9289Z" fill="#ECE7E2"/>
<path d="M91.9363 391.007V386.988H95.3033V391.007H91.9363Z" fill="#ECE7E2"/>
<path d="M114.944 391.007V386.988H118.311V391.007H114.944Z" fill="#ECE7E2"/>
<path d="M137.951 391.007V386.988H141.318V391.007H137.951Z" fill="#ECE7E2"/>
<path d="M160.865 391.007V386.988H164.232V391.007H160.865Z" fill="#ECE7E2"/>
<path d="M183.873 391.007V386.988H187.24V391.007H183.873Z" fill="#ECE7E2"/>
<path d="M206.88 391.007V386.988H210.247V391.007H206.88Z" fill="#ECE7E2"/>
<path d="M229.888 391.007V386.988H233.255V391.007H229.888Z" fill="#ECE7E2"/>
<path d="M252.802 391.007V386.988H256.169V391.007H252.802Z" fill="#ECE7E2"/>
<path d="M275.809 391.007V386.988H279.176V391.007H275.809Z" fill="#ECE7E2"/>
<path d="M298.817 391.007V386.988H302.184V391.007H298.817Z" fill="#ECE7E2"/>
<path d="M321.824 391.007V386.988H325.191V391.007H321.824Z" fill="#ECE7E2"/>
<path d="M344.738 391.007V386.988H348.105V391.007H344.738Z" fill="#ECE7E2"/>
<path d="M367.745 391.007V386.988H371.112V391.007H367.745Z" fill="#ECE7E2"/>
<path d="M390.753 391.007V386.988H394.12V391.007H390.753Z" fill="#ECE7E2"/>
<path d="M413.76 391.007V386.988H417.127V391.007H413.76Z" fill="#ECE7E2"/>
<path d="M436.768 391.007V386.988H440.135V391.007H436.768Z" fill="#ECE7E2"/>
<path d="M459.682 391.007V386.988H463.049V391.007H459.682Z" fill="#ECE7E2"/>
<path d="M482.689 391.007V386.988H486.056V391.007H482.689Z" fill="#ECE7E2"/>
<path d="M505.697 391.007V386.988H509.064V391.007H505.697Z" fill="#ECE7E2"/>
<path d="M528.704 391.007V386.988H532.071V391.007H528.704Z" fill="#ECE7E2"/>
<path d="M551.618 391.007V386.988H554.985V391.007H551.618Z" fill="#ECE7E2"/>
<path d="M574.626 391.007V386.988H577.993V391.007H574.626Z" fill="#ECE7E2"/>
<path d="M597.633 391.007V386.988H601V391.007H597.633Z" fill="#ECE7E2"/>
<path d="M0 412.506V408.487H3.36695V412.506H0Z" fill="#ECE7E2"/>
<path d="M23.0074 412.506V408.487H26.3744V412.506H23.0074Z" fill="#ECE7E2"/>
<path d="M46.015 412.506V408.487H49.3819V412.506H46.015Z" fill="#ECE7E2"/>
<path d="M68.9289 412.506V408.487H72.2958V412.506H68.9289Z" fill="#ECE7E2"/>
<path d="M91.9363 412.506V408.487H95.3033V412.506H91.9363Z" fill="#ECE7E2"/>
<path d="M114.944 412.506V408.487H118.311V412.506H114.944Z" fill="#ECE7E2"/>
<path d="M137.951 412.506V408.487H141.318V412.506H137.951Z" fill="#ECE7E2"/>
<path d="M160.865 412.506V408.487H164.232V412.506H160.865Z" fill="#ECE7E2"/>
<path d="M183.873 412.506V408.487H187.24V412.506H183.873Z" fill="#ECE7E2"/>
<path d="M206.88 412.506V408.487H210.247V412.506H206.88Z" fill="#ECE7E2"/>
<path d="M229.888 412.506V408.487H233.255V412.506H229.888Z" fill="#ECE7E2"/>
<path d="M252.802 412.506V408.487H256.169V412.506H252.802Z" fill="#ECE7E2"/>
<path d="M275.809 412.506V408.487H279.176V412.506H275.809Z" fill="#ECE7E2"/>
<path d="M298.817 412.506V408.487H302.184V412.506H298.817Z" fill="#ECE7E2"/>
<path d="M321.824 412.506V408.487H325.191V412.506H321.824Z" fill="#ECE7E2"/>
<path d="M344.738 412.506V408.487H348.105V412.506H344.738Z" fill="#ECE7E2"/>
<path d="M367.745 412.506V408.487H371.112V412.506H367.745Z" fill="#ECE7E2"/>
<path d="M390.753 412.506V408.487H394.12V412.506H390.753Z" fill="#ECE7E2"/>
<path d="M413.76 412.506V408.487H417.127V412.506H413.76Z" fill="#ECE7E2"/>
<path d="M436.768 412.506V408.487H440.135V412.506H436.768Z" fill="#ECE7E2"/>
<path d="M459.682 412.506V408.487H463.049V412.506H459.682Z" fill="#ECE7E2"/>
<path d="M482.689 412.506V408.487H486.056V412.506H482.689Z" fill="#ECE7E2"/>
<path d="M505.697 412.506V408.487H509.064V412.506H505.697Z" fill="#ECE7E2"/>
<path d="M528.704 412.506V408.487H532.071V412.506H528.704Z" fill="#ECE7E2"/>
<path d="M551.618 412.506V408.487H554.985V412.506H551.618Z" fill="#ECE7E2"/>
<path d="M574.626 412.506V408.487H577.993V412.506H574.626Z" fill="#ECE7E2"/>
<path d="M597.633 412.506V408.487H601V412.506H597.633Z" fill="#ECE7E2"/>
<path d="M0 434.006V429.986H3.36695V434.006H0Z" fill="#ECE7E2"/>
<path d="M23.0074 434.006V429.986H26.3744V434.006H23.0074Z" fill="#ECE7E2"/>
<path d="M46.015 434.006V429.986H49.3819V434.006H46.015Z" fill="#ECE7E2"/>
<path d="M68.9289 434.006V429.986H72.2958V434.006H68.9289Z" fill="#ECE7E2"/>
<path d="M91.9363 434.006V429.986H95.3033V434.006H91.9363Z" fill="#ECE7E2"/>
<path d="M114.944 434.006V429.986H118.311V434.006H114.944Z" fill="#ECE7E2"/>
<path d="M137.951 434.006V429.986H141.318V434.006H137.951Z" fill="#ECE7E2"/>
<path d="M160.865 434.006V429.986H164.232V434.006H160.865Z" fill="#ECE7E2"/>
<path d="M183.873 434.006V429.986H187.24V434.006H183.873Z" fill="#ECE7E2"/>
<path d="M206.88 434.006V429.986H210.247V434.006H206.88Z" fill="#ECE7E2"/>
<path d="M229.888 434.006V429.986H233.255V434.006H229.888Z" fill="#ECE7E2"/>
<path d="M252.802 434.006V429.986H256.169V434.006H252.802Z" fill="#ECE7E2"/>
<path d="M275.809 434.006V429.986H279.176V434.006H275.809Z" fill="#ECE7E2"/>
<path d="M298.817 434.006V429.986H302.184V434.006H298.817Z" fill="#ECE7E2"/>
<path d="M321.824 434.006V429.986H325.191V434.006H321.824Z" fill="#ECE7E2"/>
<path d="M344.738 434.006V429.986H348.105V434.006H344.738Z" fill="#ECE7E2"/>
<path d="M367.745 434.006V429.986H371.112V434.006H367.745Z" fill="#ECE7E2"/>
<path d="M390.753 434.006V429.986H394.12V434.006H390.753Z" fill="#ECE7E2"/>
<path d="M413.76 434.006V429.986H417.127V434.006H413.76Z" fill="#ECE7E2"/>
<path d="M436.768 434.006V429.986H440.135V434.006H436.768Z" fill="#ECE7E2"/>
<path d="M459.682 434.006V429.986H463.049V434.006H459.682Z" fill="#ECE7E2"/>
<path d="M482.689 434.006V429.986H486.056V434.006H482.689Z" fill="#ECE7E2"/>
<path d="M505.697 434.006V429.986H509.064V434.006H505.697Z" fill="#ECE7E2"/>
<path d="M528.704 434.006V429.986H532.071V434.006H528.704Z" fill="#ECE7E2"/>
<path d="M551.618 434.006V429.986H554.985V434.006H551.618Z" fill="#ECE7E2"/>
<path d="M574.626 434.006V429.986H577.993V434.006H574.626Z" fill="#ECE7E2"/>
<path d="M597.633 434.006V429.986H601V434.006H597.633Z" fill="#ECE7E2"/>
<path d="M0 455.505V451.485H3.36695V455.505H0Z" fill="#ECE7E2"/>
<path d="M23.0074 455.505V451.485H26.3744V455.505H23.0074Z" fill="#ECE7E2"/>
<path d="M46.015 455.505V451.485H49.3819V455.505H46.015Z" fill="#ECE7E2"/>
<path d="M68.9289 455.505V451.485H72.2958V455.505H68.9289Z" fill="#ECE7E2"/>
<path d="M91.9363 455.505V451.485H95.3033V455.505H91.9363Z" fill="#ECE7E2"/>
<path d="M114.944 455.505V451.485H118.311V455.505H114.944Z" fill="#ECE7E2"/>
<path d="M137.951 455.505V451.485H141.318V455.505H137.951Z" fill="#ECE7E2"/>
<path d="M160.865 455.505V451.485H164.232V455.505H160.865Z" fill="#ECE7E2"/>
<path d="M183.873 455.505V451.485H187.24V455.505H183.873Z" fill="#ECE7E2"/>
<path d="M206.88 455.505V451.485H210.247V455.505H206.88Z" fill="#ECE7E2"/>
<path d="M229.888 455.505V451.485H233.255V455.505H229.888Z" fill="#ECE7E2"/>
<path d="M252.802 455.505V451.485H256.169V455.505H252.802Z" fill="#ECE7E2"/>
<path d="M275.809 455.505V451.485H279.176V455.505H275.809Z" fill="#ECE7E2"/>
<path d="M298.817 455.505V451.485H302.184V455.505H298.817Z" fill="#ECE7E2"/>
<path d="M321.824 455.505V451.485H325.191V455.505H321.824Z" fill="#ECE7E2"/>
<path d="M344.738 455.505V451.485H348.105V455.505H344.738Z" fill="#ECE7E2"/>
<path d="M367.745 455.505V451.485H371.112V455.505H367.745Z" fill="#ECE7E2"/>
<path d="M390.753 455.505V451.485H394.12V455.505H390.753Z" fill="#ECE7E2"/>
<path d="M413.76 455.505V451.485H417.127V455.505H413.76Z" fill="#ECE7E2"/>
<path d="M436.768 455.505V451.485H440.135V455.505H436.768Z" fill="#ECE7E2"/>
<path d="M459.682 455.505V451.485H463.049V455.505H459.682Z" fill="#ECE7E2"/>
<path d="M482.689 455.505V451.485H486.056V455.505H482.689Z" fill="#ECE7E2"/>
<path d="M505.697 455.505V451.485H509.064V455.505H505.697Z" fill="#ECE7E2"/>
<path d="M528.704 455.505V451.485H532.071V455.505H528.704Z" fill="#ECE7E2"/>
<path d="M551.618 455.505V451.485H554.985V455.505H551.618Z" fill="#ECE7E2"/>
<path d="M574.626 455.505V451.485H577.993V455.505H574.626Z" fill="#ECE7E2"/>
<path d="M597.633 455.505V451.485H601V455.505H597.633Z" fill="#ECE7E2"/>
<path d="M0 477.004V472.985H3.36695V477.004H0Z" fill="#ECE7E2"/>
<path d="M23.0074 477.004V472.985H26.3744V477.004H23.0074Z" fill="#ECE7E2"/>
<path d="M46.015 477.004V472.985H49.3819V477.004H46.015Z" fill="#ECE7E2"/>
<path d="M68.9289 477.004V472.985H72.2958V477.004H68.9289Z" fill="#ECE7E2"/>
<path d="M91.9363 477.004V472.985H95.3033V477.004H91.9363Z" fill="#ECE7E2"/>
<path d="M114.944 477.004V472.985H118.311V477.004H114.944Z" fill="#ECE7E2"/>
<path d="M137.951 477.004V472.985H141.318V477.004H137.951Z" fill="#ECE7E2"/>
<path d="M160.865 477.004V472.985H164.232V477.004H160.865Z" fill="#ECE7E2"/>
<path d="M183.873 477.004V472.985H187.24V477.004H183.873Z" fill="#ECE7E2"/>
<path d="M206.88 477.004V472.985H210.247V477.004H206.88Z" fill="#ECE7E2"/>
<path d="M229.888 477.004V472.985H233.255V477.004H229.888Z" fill="#ECE7E2"/>
<path d="M252.802 477.004V472.985H256.169V477.004H252.802Z" fill="#ECE7E2"/>
<path d="M275.809 477.004V472.985H279.176V477.004H275.809Z" fill="#ECE7E2"/>
<path d="M298.817 477.004V472.985H302.184V477.004H298.817Z" fill="#ECE7E2"/>
<path d="M321.824 477.004V472.985H325.191V477.004H321.824Z" fill="#ECE7E2"/>
<path d="M344.738 477.004V472.985H348.105V477.004H344.738Z" fill="#ECE7E2"/>
<path d="M367.745 477.004V472.985H371.112V477.004H367.745Z" fill="#ECE7E2"/>
<path d="M390.753 477.004V472.985H394.12V477.004H390.753Z" fill="#ECE7E2"/>
<path d="M413.76 477.004V472.985H417.127V477.004H413.76Z" fill="#ECE7E2"/>
<path d="M436.768 477.004V472.985H440.135V477.004H436.768Z" fill="#ECE7E2"/>
<path d="M459.682 477.004V472.985H463.049V477.004H459.682Z" fill="#ECE7E2"/>
<path d="M482.689 477.004V472.985H486.056V477.004H482.689Z" fill="#ECE7E2"/>
<path d="M505.697 477.004V472.985H509.064V477.004H505.697Z" fill="#ECE7E2"/>
<path d="M528.704 477.004V472.985H532.071V477.004H528.704Z" fill="#ECE7E2"/>
<path d="M551.618 477.004V472.985H554.985V477.004H551.618Z" fill="#ECE7E2"/>
<path d="M574.626 477.004V472.985H577.993V477.004H574.626Z" fill="#ECE7E2"/>
<path d="M597.633 477.004V472.985H601V477.004H597.633Z" fill="#ECE7E2"/>
<path d="M0 498.503V494.484H3.36695V498.503H0Z" fill="#ECE7E2"/>
<path d="M23.0074 498.503V494.484H26.3744V498.503H23.0074Z" fill="#ECE7E2"/>
<path d="M46.015 498.503V494.484H49.3819V498.503H46.015Z" fill="#ECE7E2"/>
<path d="M68.9289 498.503V494.484H72.2958V498.503H68.9289Z" fill="#ECE7E2"/>
<path d="M91.9363 498.503V494.484H95.3033V498.503H91.9363Z" fill="#ECE7E2"/>
<path d="M114.944 498.503V494.484H118.311V498.503H114.944Z" fill="#ECE7E2"/>
<path d="M137.951 498.503V494.484H141.318V498.503H137.951Z" fill="#ECE7E2"/>
<path d="M160.865 498.503V494.484H164.232V498.503H160.865Z" fill="#ECE7E2"/>
<path d="M183.873 498.503V494.484H187.24V498.503H183.873Z" fill="#ECE7E2"/>
<path d="M206.88 498.503V494.484H210.247V498.503H206.88Z" fill="#ECE7E2"/>
<path d="M229.888 498.503V494.484H233.255V498.503H229.888Z" fill="#ECE7E2"/>
<path d="M252.802 498.503V494.484H256.169V498.503H252.802Z" fill="#ECE7E2"/>
<path d="M275.809 498.503V494.484H279.176V498.503H275.809Z" fill="#ECE7E2"/>
<path d="M298.817 498.503V494.484H302.184V498.503H298.817Z" fill="#ECE7E2"/>
<path d="M321.824 498.503V494.484H325.191V498.503H321.824Z" fill="#ECE7E2"/>
<path d="M344.738 498.503V494.484H348.105V498.503H344.738Z" fill="#ECE7E2"/>
<path d="M367.745 498.503V494.484H371.112V498.503H367.745Z" fill="#ECE7E2"/>
<path d="M390.753 498.503V494.484H394.12V498.503H390.753Z" fill="#ECE7E2"/>
<path d="M413.76 498.503V494.484H417.127V498.503H413.76Z" fill="#ECE7E2"/>
<path d="M436.768 498.503V494.484H440.135V498.503H436.768Z" fill="#ECE7E2"/>
<path d="M459.682 498.503V494.484H463.049V498.503H459.682Z" fill="#ECE7E2"/>
<path d="M482.689 498.503V494.484H486.056V498.503H482.689Z" fill="#ECE7E2"/>
<path d="M505.697 498.503V494.484H509.064V498.503H505.697Z" fill="#ECE7E2"/>
<path d="M528.704 498.503V494.484H532.071V498.503H528.704Z" fill="#ECE7E2"/>
<path d="M551.618 498.503V494.484H554.985V498.503H551.618Z" fill="#ECE7E2"/>
<path d="M574.626 498.503V494.484H577.993V498.503H574.626Z" fill="#ECE7E2"/>
<path d="M597.633 498.503V494.484H601V498.503H597.633Z" fill="#ECE7E2"/>
<path d="M0 520.003V515.983H3.36695V520.003H0Z" fill="#ECE7E2"/>
<path d="M23.0074 520.003V515.983H26.3744V520.003H23.0074Z" fill="#ECE7E2"/>
<path d="M46.015 520.003V515.983H49.3819V520.003H46.015Z" fill="#ECE7E2"/>
<path d="M68.9289 520.003V515.983H72.2958V520.003H68.9289Z" fill="#ECE7E2"/>
<path d="M91.9363 520.003V515.983H95.3033V520.003H91.9363Z" fill="#ECE7E2"/>
<path d="M114.944 520.003V515.983H118.311V520.003H114.944Z" fill="#ECE7E2"/>
<path d="M137.951 520.003V515.983H141.318V520.003H137.951Z" fill="#ECE7E2"/>
<path d="M160.865 520.003V515.983H164.232V520.003H160.865Z" fill="#ECE7E2"/>
<path d="M183.873 520.003V515.983H187.24V520.003H183.873Z" fill="#ECE7E2"/>
<path d="M206.88 520.003V515.983H210.247V520.003H206.88Z" fill="#ECE7E2"/>
<path d="M229.888 520.003V515.983H233.255V520.003H229.888Z" fill="#ECE7E2"/>
<path d="M252.802 520.003V515.983H256.169V520.003H252.802Z" fill="#ECE7E2"/>
<path d="M275.809 520.003V515.983H279.176V520.003H275.809Z" fill="#ECE7E2"/>
<path d="M298.817 520.003V515.983H302.184V520.003H298.817Z" fill="#ECE7E2"/>
<path d="M321.824 520.003V515.983H325.191V520.003H321.824Z" fill="#ECE7E2"/>
<path d="M344.738 520.003V515.983H348.105V520.003H344.738Z" fill="#ECE7E2"/>
<path d="M367.745 520.003V515.983H371.112V520.003H367.745Z" fill="#ECE7E2"/>
<path d="M390.753 520.003V515.983H394.12V520.003H390.753Z" fill="#ECE7E2"/>
<path d="M413.76 520.003V515.983H417.127V520.003H413.76Z" fill="#ECE7E2"/>
<path d="M436.768 520.003V515.983H440.135V520.003H436.768Z" fill="#ECE7E2"/>
<path d="M459.682 520.003V515.983H463.049V520.003H459.682Z" fill="#ECE7E2"/>
<path d="M482.689 520.003V515.983H486.056V520.003H482.689Z" fill="#ECE7E2"/>
<path d="M505.697 520.003V515.983H509.064V520.003H505.697Z" fill="#ECE7E2"/>
<path d="M528.704 520.003V515.983H532.071V520.003H528.704Z" fill="#ECE7E2"/>
<path d="M551.618 520.003V515.983H554.985V520.003H551.618Z" fill="#ECE7E2"/>
<path d="M574.626 520.003V515.983H577.993V520.003H574.626Z" fill="#ECE7E2"/>
<path d="M597.633 520.003V515.983H601V520.003H597.633Z" fill="#ECE7E2"/>
<path d="M0 541.502V537.483H3.36695V541.502H0Z" fill="#ECE7E2"/>
<path d="M23.0074 541.502V537.483H26.3744V541.502H23.0074Z" fill="#ECE7E2"/>
<path d="M46.015 541.502V537.483H49.3819V541.502H46.015Z" fill="#ECE7E2"/>
<path d="M68.9289 541.502V537.483H72.2958V541.502H68.9289Z" fill="#ECE7E2"/>
<path d="M91.9363 541.502V537.483H95.3033V541.502H91.9363Z" fill="#ECE7E2"/>
<path d="M114.944 541.502V537.483H118.311V541.502H114.944Z" fill="#ECE7E2"/>
<path d="M137.951 541.502V537.483H141.318V541.502H137.951Z" fill="#ECE7E2"/>
<path d="M160.865 541.502V537.483H164.232V541.502H160.865Z" fill="#ECE7E2"/>
<path d="M183.873 541.502V537.483H187.24V541.502H183.873Z" fill="#ECE7E2"/>
<path d="M206.88 541.502V537.483H210.247V541.502H206.88Z" fill="#ECE7E2"/>
<path d="M229.888 541.502V537.483H233.255V541.502H229.888Z" fill="#ECE7E2"/>
<path d="M252.802 541.502V537.483H256.169V541.502H252.802Z" fill="#ECE7E2"/>
<path d="M275.809 541.502V537.483H279.176V541.502H275.809Z" fill="#ECE7E2"/>
<path d="M298.817 541.502V537.483H302.184V541.502H298.817Z" fill="#ECE7E2"/>
<path d="M321.824 541.502V537.483H325.191V541.502H321.824Z" fill="#ECE7E2"/>
<path d="M344.738 541.502V537.483H348.105V541.502H344.738Z" fill="#ECE7E2"/>
<path d="M367.745 541.502V537.483H371.112V541.502H367.745Z" fill="#ECE7E2"/>
<path d="M390.753 541.502V537.483H394.12V541.502H390.753Z" fill="#ECE7E2"/>
<path d="M413.76 541.502V537.483H417.127V541.502H413.76Z" fill="#ECE7E2"/>
<path d="M436.768 541.502V537.483H440.135V541.502H436.768Z" fill="#ECE7E2"/>
<path d="M459.682 541.502V537.483H463.049V541.502H459.682Z" fill="#ECE7E2"/>
<path d="M482.689 541.502V537.483H486.056V541.502H482.689Z" fill="#ECE7E2"/>
<path d="M505.697 541.502V537.483H509.064V541.502H505.697Z" fill="#ECE7E2"/>
<path d="M528.704 541.502V537.483H532.071V541.502H528.704Z" fill="#ECE7E2"/>
<path d="M551.618 541.502V537.483H554.985V541.502H551.618Z" fill="#ECE7E2"/>
<path d="M574.626 541.502V537.483H577.993V541.502H574.626Z" fill="#ECE7E2"/>
<path d="M597.633 541.502V537.483H601V541.502H597.633Z" fill="#ECE7E2"/>
<path d="M0 563.001V558.982H3.36695V563.001H0Z" fill="#ECE7E2"/>
<path d="M23.0074 563.001V558.982H26.3744V563.001H23.0074Z" fill="#ECE7E2"/>
<path d="M46.015 563.001V558.982H49.3819V563.001H46.015Z" fill="#ECE7E2"/>
<path d="M68.9289 563.001V558.982H72.2958V563.001H68.9289Z" fill="#ECE7E2"/>
<path d="M91.9363 563.001V558.982H95.3033V563.001H91.9363Z" fill="#ECE7E2"/>
<path d="M114.944 563.001V558.982H118.311V563.001H114.944Z" fill="#ECE7E2"/>
<path d="M137.951 563.001V558.982H141.318V563.001H137.951Z" fill="#ECE7E2"/>
<path d="M160.865 563.001V558.982H164.232V563.001H160.865Z" fill="#ECE7E2"/>
<path d="M183.873 563.001V558.982H187.24V563.001H183.873Z" fill="#ECE7E2"/>
<path d="M206.88 563.001V558.982H210.247V563.001H206.88Z" fill="#ECE7E2"/>
<path d="M229.888 563.001V558.982H233.255V563.001H229.888Z" fill="#ECE7E2"/>
<path d="M252.802 563.001V558.982H256.169V563.001H252.802Z" fill="#ECE7E2"/>
<path d="M275.809 563.001V558.982H279.176V563.001H275.809Z" fill="#ECE7E2"/>
<path d="M298.817 563.001V558.982H302.184V563.001H298.817Z" fill="#ECE7E2"/>
<path d="M321.824 563.001V558.982H325.191V563.001H321.824Z" fill="#ECE7E2"/>
<path d="M344.738 563.001V558.982H348.105V563.001H344.738Z" fill="#ECE7E2"/>
<path d="M367.745 563.001V558.982H371.112V563.001H367.745Z" fill="#ECE7E2"/>
<path d="M390.753 563.001V558.982H394.12V563.001H390.753Z" fill="#ECE7E2"/>
<path d="M413.76 563.001V558.982H417.127V563.001H413.76Z" fill="#ECE7E2"/>
<path d="M436.768 563.001V558.982H440.135V563.001H436.768Z" fill="#ECE7E2"/>
<path d="M459.682 563.001V558.982H463.049V563.001H459.682Z" fill="#ECE7E2"/>
<path d="M482.689 563.001V558.982H486.056V563.001H482.689Z" fill="#ECE7E2"/>
<path d="M505.697 563.001V558.982H509.064V563.001H505.697Z" fill="#ECE7E2"/>
<path d="M528.704 563.001V558.982H532.071V563.001H528.704Z" fill="#ECE7E2"/>
<path d="M551.618 563.001V558.982H554.985V563.001H551.618Z" fill="#ECE7E2"/>
<path d="M574.626 563.001V558.982H577.993V563.001H574.626Z" fill="#ECE7E2"/>
<path d="M597.633 563.001V558.982H601V563.001H597.633Z" fill="#ECE7E2"/>
<path d="M0 584.501V580.481H3.36695V584.501H0Z" fill="#ECE7E2"/>
<path d="M23.0074 584.501V580.481H26.3744V584.501H23.0074Z" fill="#ECE7E2"/>
<path d="M46.015 584.501V580.481H49.3819V584.501H46.015Z" fill="#ECE7E2"/>
<path d="M68.9289 584.501V580.481H72.2958V584.501H68.9289Z" fill="#ECE7E2"/>
<path d="M91.9363 584.501V580.481H95.3033V584.501H91.9363Z" fill="#ECE7E2"/>
<path d="M114.944 584.501V580.481H118.311V584.501H114.944Z" fill="#ECE7E2"/>
<path d="M137.951 584.501V580.481H141.318V584.501H137.951Z" fill="#ECE7E2"/>
<path d="M160.865 584.501V580.481H164.232V584.501H160.865Z" fill="#ECE7E2"/>
<path d="M183.873 584.501V580.481H187.24V584.501H183.873Z" fill="#ECE7E2"/>
<path d="M206.88 584.501V580.481H210.247V584.501H206.88Z" fill="#ECE7E2"/>
<path d="M229.888 584.501V580.481H233.255V584.501H229.888Z" fill="#ECE7E2"/>
<path d="M252.802 584.501V580.481H256.169V584.501H252.802Z" fill="#ECE7E2"/>
<path d="M275.809 584.501V580.481H279.176V584.501H275.809Z" fill="#ECE7E2"/>
<path d="M298.817 584.501V580.481H302.184V584.501H298.817Z" fill="#ECE7E2"/>
<path d="M321.824 584.501V580.481H325.191V584.501H321.824Z" fill="#ECE7E2"/>
<path d="M344.738 584.501V580.481H348.105V584.501H344.738Z" fill="#ECE7E2"/>
<path d="M367.745 584.501V580.481H371.112V584.501H367.745Z" fill="#ECE7E2"/>
<path d="M390.753 584.501V580.481H394.12V584.501H390.753Z" fill="#ECE7E2"/>
<path d="M413.76 584.501V580.481H417.127V584.501H413.76Z" fill="#ECE7E2"/>
<path d="M436.768 584.501V580.481H440.135V584.501H436.768Z" fill="#ECE7E2"/>
<path d="M459.682 584.501V580.481H463.049V584.501H459.682Z" fill="#ECE7E2"/>
<path d="M482.689 584.501V580.481H486.056V584.501H482.689Z" fill="#ECE7E2"/>
<path d="M505.697 584.501V580.481H509.064V584.501H505.697Z" fill="#ECE7E2"/>
<path d="M528.704 584.501V580.481H532.071V584.501H528.704Z" fill="#ECE7E2"/>
<path d="M551.618 584.501V580.481H554.985V584.501H551.618Z" fill="#ECE7E2"/>
<path d="M574.626 584.501V580.481H577.993V584.501H574.626Z" fill="#ECE7E2"/>
<path d="M597.633 584.501V580.481H601V584.501H597.633Z" fill="#ECE7E2"/>
<path d="M0 606V601.981H3.36695V606H0Z" fill="#ECE7E2"/>
<path d="M23.0074 606V601.981H26.3744V606H23.0074Z" fill="#ECE7E2"/>
<path d="M46.015 606V601.981H49.3819V606H46.015Z" fill="#ECE7E2"/>
<path d="M68.9289 606V601.981H72.2958V606H68.9289Z" fill="#ECE7E2"/>
<path d="M91.9363 606V601.981H95.3033V606H91.9363Z" fill="#ECE7E2"/>
<path d="M114.944 606V601.981H118.311V606H114.944Z" fill="#ECE7E2"/>
<path d="M137.951 606V601.981H141.318V606H137.951Z" fill="#ECE7E2"/>
<path d="M160.865 606V601.981H164.232V606H160.865Z" fill="#ECE7E2"/>
<path d="M183.873 606V601.981H187.24V606H183.873Z" fill="#ECE7E2"/>
<path d="M206.88 606V601.981H210.247V606H206.88Z" fill="#ECE7E2"/>
<path d="M229.888 606V601.981H233.255V606H229.888Z" fill="#ECE7E2"/>
<path d="M252.802 606V601.981H256.169V606H252.802Z" fill="#ECE7E2"/>
<path d="M275.809 606V601.981H279.176V606H275.809Z" fill="#ECE7E2"/>
<path d="M298.817 606V601.981H302.184V606H298.817Z" fill="#ECE7E2"/>
<path d="M321.824 606V601.981H325.191V606H321.824Z" fill="#ECE7E2"/>
<path d="M344.738 606V601.981H348.105V606H344.738Z" fill="#ECE7E2"/>
<path d="M367.745 606V601.981H371.112V606H367.745Z" fill="#ECE7E2"/>
<path d="M390.753 606V601.981H394.12V606H390.753Z" fill="#ECE7E2"/>
<path d="M413.76 606V601.981H417.127V606H413.76Z" fill="#ECE7E2"/>
<path d="M436.768 606V601.981H440.135V606H436.768Z" fill="#ECE7E2"/>
<path d="M459.682 606V601.981H463.049V606H459.682Z" fill="#ECE7E2"/>
<path d="M482.689 606V601.981H486.056V606H482.689Z" fill="#ECE7E2"/>
<path d="M505.697 606V601.981H509.064V606H505.697Z" fill="#ECE7E2"/>
<path d="M528.704 606V601.981H532.071V606H528.704Z" fill="#ECE7E2"/>
<path d="M551.618 606V601.981H554.985V606H551.618Z" fill="#ECE7E2"/>
<path d="M574.626 606V601.981H577.993V606H574.626Z" fill="#ECE7E2"/>
<path d="M597.633 606V601.981H601V606H597.633Z" fill="#ECE7E2"/>
</svg>
