<svg width="299" height="301" viewBox="0 0 299 301" fill="none" xmlns="http://www.w3.org/2000/svg">
<path d="M0 1.99645V0H1.67507V1.99645H0Z" fill="#ECE7E2"/>
<path d="M11.4464 1.99645V0H13.1214V1.99645H11.4464Z" fill="#ECE7E2"/>
<path d="M22.8926 1.99645V0H24.5677V1.99645H22.8926Z" fill="#ECE7E2"/>
<path d="M34.2924 1.99645V0H35.9675V1.99645H34.2924Z" fill="#ECE7E2"/>
<path d="M45.7387 1.99645V0H47.4138V1.99645H45.7387Z" fill="#ECE7E2"/>
<path d="M57.185 1.99645V0H58.8601V1.99645H57.185Z" fill="#ECE7E2"/>
<path d="M68.6313 1.99645V0H70.3064V1.99645H68.6313Z" fill="#ECE7E2"/>
<path d="M80.0311 1.99645V0H81.7062V1.99645H80.0311Z" fill="#ECE7E2"/>
<path d="M91.4775 1.99645V0H93.1526V1.99645H91.4775Z" fill="#ECE7E2"/>
<path d="M102.924 1.99645V0H104.599V1.99645H102.924Z" fill="#ECE7E2"/>
<path d="M114.37 1.99645V0H116.045V1.99645H114.37Z" fill="#ECE7E2"/>
<path d="M125.77 1.99645V0H127.445V1.99645H125.77Z" fill="#ECE7E2"/>
<path d="M137.216 1.99645V0H138.891V1.99645H137.216Z" fill="#ECE7E2"/>
<path d="M148.662 1.99645V0H150.338V1.99645H148.662Z" fill="#ECE7E2"/>
<path d="M160.109 1.99645V0H161.784V1.99645H160.109Z" fill="#ECE7E2"/>
<path d="M171.509 1.99645V0H173.184V1.99645H171.509Z" fill="#ECE7E2"/>
<path d="M182.955 1.99645V0H184.63V1.99645H182.955Z" fill="#ECE7E2"/>
<path d="M194.401 1.99645V0H196.076V1.99645H194.401Z" fill="#ECE7E2"/>
<path d="M205.848 1.99645V0H207.523V1.99645H205.848Z" fill="#ECE7E2"/>
<path d="M217.294 1.99645V0H218.969V1.99645H217.294Z" fill="#ECE7E2"/>
<path d="M228.694 1.99645V0H230.369V1.99645H228.694Z" fill="#ECE7E2"/>
<path d="M240.14 1.99645V0H241.815V1.99645H240.14Z" fill="#ECE7E2"/>
<path d="M251.586 1.99645V0H253.261V1.99645H251.586Z" fill="#ECE7E2"/>
<path d="M263.033 1.99645V0H264.708V1.99645H263.033Z" fill="#ECE7E2"/>
<path d="M274.432 1.99645V0H276.107V1.99645H274.432Z" fill="#ECE7E2"/>
<path d="M285.879 1.99645V0H287.554V1.99645H285.879Z" fill="#ECE7E2"/>
<path d="M297.325 1.99645V0H299V1.99645H297.325Z" fill="#ECE7E2"/>
<path d="M0 12.6752V10.6787H1.67507V12.6752H0Z" fill="#ECE7E2"/>
<path d="M11.4464 12.6752V10.6787H13.1214V12.6752H11.4464Z" fill="#ECE7E2"/>
<path d="M22.8926 12.6752V10.6787H24.5677V12.6752H22.8926Z" fill="#ECE7E2"/>
<path d="M34.2924 12.6752V10.6787H35.9675V12.6752H34.2924Z" fill="#ECE7E2"/>
<path d="M45.7387 12.6752V10.6787H47.4138V12.6752H45.7387Z" fill="#ECE7E2"/>
<path d="M57.185 12.6752V10.6787H58.8601V12.6752H57.185Z" fill="#ECE7E2"/>
<path d="M68.6313 12.6752V10.6787H70.3064V12.6752H68.6313Z" fill="#ECE7E2"/>
<path d="M80.0311 12.6752V10.6787H81.7062V12.6752H80.0311Z" fill="#ECE7E2"/>
<path d="M91.4775 12.6752V10.6787H93.1526V12.6752H91.4775Z" fill="#ECE7E2"/>
<path d="M102.924 12.6752V10.6787H104.599V12.6752H102.924Z" fill="#ECE7E2"/>
<path d="M114.37 12.6752V10.6787H116.045V12.6752H114.37Z" fill="#ECE7E2"/>
<path d="M125.77 12.6752V10.6787H127.445V12.6752H125.77Z" fill="#ECE7E2"/>
<path d="M137.216 12.6752V10.6787H138.891V12.6752H137.216Z" fill="#ECE7E2"/>
<path d="M148.662 12.6752V10.6787H150.338V12.6752H148.662Z" fill="#ECE7E2"/>
<path d="M160.109 12.6752V10.6787H161.784V12.6752H160.109Z" fill="#ECE7E2"/>
<path d="M171.509 12.6752V10.6787H173.184V12.6752H171.509Z" fill="#ECE7E2"/>
<path d="M182.955 12.6752V10.6787H184.63V12.6752H182.955Z" fill="#ECE7E2"/>
<path d="M194.401 12.6752V10.6787H196.076V12.6752H194.401Z" fill="#ECE7E2"/>
<path d="M205.848 12.6752V10.6787H207.523V12.6752H205.848Z" fill="#ECE7E2"/>
<path d="M217.294 12.6752V10.6787H218.969V12.6752H217.294Z" fill="#ECE7E2"/>
<path d="M228.694 12.6752V10.6787H230.369V12.6752H228.694Z" fill="#ECE7E2"/>
<path d="M240.14 12.6752V10.6787H241.815V12.6752H240.14Z" fill="#ECE7E2"/>
<path d="M251.586 12.6752V10.6787H253.261V12.6752H251.586Z" fill="#ECE7E2"/>
<path d="M263.033 12.6752V10.6787H264.708V12.6752H263.033Z" fill="#ECE7E2"/>
<path d="M274.432 12.6752V10.6787H276.107V12.6752H274.432Z" fill="#ECE7E2"/>
<path d="M285.879 12.6752V10.6787H287.554V12.6752H285.879Z" fill="#ECE7E2"/>
<path d="M297.325 12.6752V10.6787H299V12.6752H297.325Z" fill="#ECE7E2"/>
<path d="M0 23.3538V21.3574H1.67507V23.3538H0Z" fill="#ECE7E2"/>
<path d="M11.4464 23.3538V21.3574H13.1214V23.3538H11.4464Z" fill="#ECE7E2"/>
<path d="M22.8926 23.3538V21.3574H24.5677V23.3538H22.8926Z" fill="#ECE7E2"/>
<path d="M34.2924 23.3538V21.3574H35.9675V23.3538H34.2924Z" fill="#ECE7E2"/>
<path d="M45.7387 23.3538V21.3574H47.4138V23.3538H45.7387Z" fill="#ECE7E2"/>
<path d="M57.185 23.3538V21.3574H58.8601V23.3538H57.185Z" fill="#ECE7E2"/>
<path d="M68.6313 23.3538V21.3574H70.3064V23.3538H68.6313Z" fill="#ECE7E2"/>
<path d="M80.0311 23.3538V21.3574H81.7062V23.3538H80.0311Z" fill="#ECE7E2"/>
<path d="M91.4775 23.3538V21.3574H93.1526V23.3538H91.4775Z" fill="#ECE7E2"/>
<path d="M102.924 23.3538V21.3574H104.599V23.3538H102.924Z" fill="#ECE7E2"/>
<path d="M114.37 23.3538V21.3574H116.045V23.3538H114.37Z" fill="#ECE7E2"/>
<path d="M125.77 23.3538V21.3574H127.445V23.3538H125.77Z" fill="#ECE7E2"/>
<path d="M137.216 23.3538V21.3574H138.891V23.3538H137.216Z" fill="#ECE7E2"/>
<path d="M148.662 23.3538V21.3574H150.338V23.3538H148.662Z" fill="#ECE7E2"/>
<path d="M160.109 23.3538V21.3574H161.784V23.3538H160.109Z" fill="#ECE7E2"/>
<path d="M171.509 23.3538V21.3574H173.184V23.3538H171.509Z" fill="#ECE7E2"/>
<path d="M182.955 23.3538V21.3574H184.63V23.3538H182.955Z" fill="#ECE7E2"/>
<path d="M194.401 23.3538V21.3574H196.076V23.3538H194.401Z" fill="#ECE7E2"/>
<path d="M205.848 23.3538V21.3574H207.523V23.3538H205.848Z" fill="#ECE7E2"/>
<path d="M217.294 23.3538V21.3574H218.969V23.3538H217.294Z" fill="#ECE7E2"/>
<path d="M228.694 23.3538V21.3574H230.369V23.3538H228.694Z" fill="#ECE7E2"/>
<path d="M240.14 23.3538V21.3574H241.815V23.3538H240.14Z" fill="#ECE7E2"/>
<path d="M251.586 23.3538V21.3574H253.261V23.3538H251.586Z" fill="#ECE7E2"/>
<path d="M263.033 23.3538V21.3574H264.708V23.3538H263.033Z" fill="#ECE7E2"/>
<path d="M274.432 23.3538V21.3574H276.107V23.3538H274.432Z" fill="#ECE7E2"/>
<path d="M285.879 23.3538V21.3574H287.554V23.3538H285.879Z" fill="#ECE7E2"/>
<path d="M297.325 23.3538V21.3574H299V23.3538H297.325Z" fill="#ECE7E2"/>
<path d="M0 34.0326V32.0361H1.67507V34.0326H0Z" fill="#ECE7E2"/>
<path d="M11.4464 34.0326V32.0361H13.1214V34.0326H11.4464Z" fill="#ECE7E2"/>
<path d="M22.8926 34.0326V32.0361H24.5677V34.0326H22.8926Z" fill="#ECE7E2"/>
<path d="M34.2924 34.0326V32.0361H35.9675V34.0326H34.2924Z" fill="#ECE7E2"/>
<path d="M45.7387 34.0326V32.0361H47.4138V34.0326H45.7387Z" fill="#ECE7E2"/>
<path d="M57.185 34.0326V32.0361H58.8601V34.0326H57.185Z" fill="#ECE7E2"/>
<path d="M68.6313 34.0326V32.0361H70.3064V34.0326H68.6313Z" fill="#ECE7E2"/>
<path d="M80.0311 34.0326V32.0361H81.7062V34.0326H80.0311Z" fill="#ECE7E2"/>
<path d="M91.4775 34.0326V32.0361H93.1526V34.0326H91.4775Z" fill="#ECE7E2"/>
<path d="M102.924 34.0326V32.0361H104.599V34.0326H102.924Z" fill="#ECE7E2"/>
<path d="M114.37 34.0326V32.0361H116.045V34.0326H114.37Z" fill="#ECE7E2"/>
<path d="M125.77 34.0326V32.0361H127.445V34.0326H125.77Z" fill="#ECE7E2"/>
<path d="M137.216 34.0326V32.0361H138.891V34.0326H137.216Z" fill="#ECE7E2"/>
<path d="M148.662 34.0326V32.0361H150.338V34.0326H148.662Z" fill="#ECE7E2"/>
<path d="M160.109 34.0326V32.0361H161.784V34.0326H160.109Z" fill="#ECE7E2"/>
<path d="M171.509 34.0326V32.0361H173.184V34.0326H171.509Z" fill="#ECE7E2"/>
<path d="M182.955 34.0326V32.0361H184.63V34.0326H182.955Z" fill="#ECE7E2"/>
<path d="M194.401 34.0326V32.0361H196.076V34.0326H194.401Z" fill="#ECE7E2"/>
<path d="M205.848 34.0326V32.0361H207.523V34.0326H205.848Z" fill="#ECE7E2"/>
<path d="M217.294 34.0326V32.0361H218.969V34.0326H217.294Z" fill="#ECE7E2"/>
<path d="M228.694 34.0326V32.0361H230.369V34.0326H228.694Z" fill="#ECE7E2"/>
<path d="M240.14 34.0326V32.0361H241.815V34.0326H240.14Z" fill="#ECE7E2"/>
<path d="M251.586 34.0326V32.0361H253.261V34.0326H251.586Z" fill="#ECE7E2"/>
<path d="M263.033 34.0326V32.0361H264.708V34.0326H263.033Z" fill="#ECE7E2"/>
<path d="M274.432 34.0326V32.0361H276.107V34.0326H274.432Z" fill="#ECE7E2"/>
<path d="M285.879 34.0326V32.0361H287.554V34.0326H285.879Z" fill="#ECE7E2"/>
<path d="M297.325 34.0326V32.0361H299V34.0326H297.325Z" fill="#ECE7E2"/>
<path d="M0 44.7112V42.7148H1.67507V44.7112H0Z" fill="#ECE7E2"/>
<path d="M11.4464 44.7112V42.7148H13.1214V44.7112H11.4464Z" fill="#ECE7E2"/>
<path d="M22.8926 44.7112V42.7148H24.5677V44.7112H22.8926Z" fill="#ECE7E2"/>
<path d="M34.2924 44.7112V42.7148H35.9675V44.7112H34.2924Z" fill="#ECE7E2"/>
<path d="M45.7387 44.7112V42.7148H47.4138V44.7112H45.7387Z" fill="#ECE7E2"/>
<path d="M57.185 44.7112V42.7148H58.8601V44.7112H57.185Z" fill="#ECE7E2"/>
<path d="M68.6313 44.7112V42.7148H70.3064V44.7112H68.6313Z" fill="#ECE7E2"/>
<path d="M80.0311 44.7112V42.7148H81.7062V44.7112H80.0311Z" fill="#ECE7E2"/>
<path d="M91.4775 44.7112V42.7148H93.1526V44.7112H91.4775Z" fill="#ECE7E2"/>
<path d="M102.924 44.7112V42.7148H104.599V44.7112H102.924Z" fill="#ECE7E2"/>
<path d="M114.37 44.7112V42.7148H116.045V44.7112H114.37Z" fill="#ECE7E2"/>
<path d="M125.77 44.7112V42.7148H127.445V44.7112H125.77Z" fill="#ECE7E2"/>
<path d="M137.216 44.7112V42.7148H138.891V44.7112H137.216Z" fill="#ECE7E2"/>
<path d="M148.662 44.7112V42.7148H150.338V44.7112H148.662Z" fill="#ECE7E2"/>
<path d="M160.109 44.7112V42.7148H161.784V44.7112H160.109Z" fill="#ECE7E2"/>
<path d="M171.509 44.7112V42.7148H173.184V44.7112H171.509Z" fill="#ECE7E2"/>
<path d="M182.955 44.7112V42.7148H184.63V44.7112H182.955Z" fill="#ECE7E2"/>
<path d="M194.401 44.7112V42.7148H196.076V44.7112H194.401Z" fill="#ECE7E2"/>
<path d="M205.848 44.7112V42.7148H207.523V44.7112H205.848Z" fill="#ECE7E2"/>
<path d="M217.294 44.7112V42.7148H218.969V44.7112H217.294Z" fill="#ECE7E2"/>
<path d="M228.694 44.7112V42.7148H230.369V44.7112H228.694Z" fill="#ECE7E2"/>
<path d="M240.14 44.7112V42.7148H241.815V44.7112H240.14Z" fill="#ECE7E2"/>
<path d="M251.586 44.7112V42.7148H253.261V44.7112H251.586Z" fill="#ECE7E2"/>
<path d="M263.033 44.7112V42.7148H264.708V44.7112H263.033Z" fill="#ECE7E2"/>
<path d="M274.432 44.7112V42.7148H276.107V44.7112H274.432Z" fill="#ECE7E2"/>
<path d="M285.879 44.7112V42.7148H287.554V44.7112H285.879Z" fill="#ECE7E2"/>
<path d="M297.325 44.7112V42.7148H299V44.7112H297.325Z" fill="#ECE7E2"/>
<path d="M0 55.3899V53.3935H1.67507V55.3899H0Z" fill="#ECE7E2"/>
<path d="M11.4464 55.3899V53.3935H13.1214V55.3899H11.4464Z" fill="#ECE7E2"/>
<path d="M22.8926 55.3899V53.3935H24.5677V55.3899H22.8926Z" fill="#ECE7E2"/>
<path d="M34.2924 55.3899V53.3935H35.9675V55.3899H34.2924Z" fill="#ECE7E2"/>
<path d="M45.7387 55.3899V53.3935H47.4138V55.3899H45.7387Z" fill="#ECE7E2"/>
<path d="M57.185 55.3899V53.3935H58.8601V55.3899H57.185Z" fill="#ECE7E2"/>
<path d="M68.6313 55.3899V53.3935H70.3064V55.3899H68.6313Z" fill="#ECE7E2"/>
<path d="M80.0311 55.3899V53.3935H81.7062V55.3899H80.0311Z" fill="#ECE7E2"/>
<path d="M91.4775 55.3899V53.3935H93.1526V55.3899H91.4775Z" fill="#ECE7E2"/>
<path d="M102.924 55.3899V53.3935H104.599V55.3899H102.924Z" fill="#ECE7E2"/>
<path d="M114.37 55.3899V53.3935H116.045V55.3899H114.37Z" fill="#ECE7E2"/>
<path d="M125.77 55.3899V53.3935H127.445V55.3899H125.77Z" fill="#ECE7E2"/>
<path d="M137.216 55.3899V53.3935H138.891V55.3899H137.216Z" fill="#ECE7E2"/>
<path d="M148.662 55.3899V53.3935H150.338V55.3899H148.662Z" fill="#ECE7E2"/>
<path d="M160.109 55.3899V53.3935H161.784V55.3899H160.109Z" fill="#ECE7E2"/>
<path d="M171.509 55.3899V53.3935H173.184V55.3899H171.509Z" fill="#ECE7E2"/>
<path d="M182.955 55.3899V53.3935H184.63V55.3899H182.955Z" fill="#ECE7E2"/>
<path d="M194.401 55.3899V53.3935H196.076V55.3899H194.401Z" fill="#ECE7E2"/>
<path d="M205.848 55.3899V53.3935H207.523V55.3899H205.848Z" fill="#ECE7E2"/>
<path d="M217.294 55.3899V53.3935H218.969V55.3899H217.294Z" fill="#ECE7E2"/>
<path d="M228.694 55.3899V53.3935H230.369V55.3899H228.694Z" fill="#ECE7E2"/>
<path d="M240.14 55.3899V53.3935H241.815V55.3899H240.14Z" fill="#ECE7E2"/>
<path d="M251.586 55.3899V53.3935H253.261V55.3899H251.586Z" fill="#ECE7E2"/>
<path d="M263.033 55.3899V53.3935H264.708V55.3899H263.033Z" fill="#ECE7E2"/>
<path d="M274.432 55.3899V53.3935H276.107V55.3899H274.432Z" fill="#ECE7E2"/>
<path d="M285.879 55.3899V53.3935H287.554V55.3899H285.879Z" fill="#ECE7E2"/>
<path d="M297.325 55.3899V53.3935H299V55.3899H297.325Z" fill="#ECE7E2"/>
<path d="M0 66.0686V64.0722H1.67507V66.0686H0Z" fill="#ECE7E2"/>
<path d="M11.4464 66.0686V64.0722H13.1214V66.0686H11.4464Z" fill="#ECE7E2"/>
<path d="M22.8926 66.0686V64.0722H24.5677V66.0686H22.8926Z" fill="#ECE7E2"/>
<path d="M34.2924 66.0686V64.0722H35.9675V66.0686H34.2924Z" fill="#ECE7E2"/>
<path d="M45.7387 66.0686V64.0722H47.4138V66.0686H45.7387Z" fill="#ECE7E2"/>
<path d="M57.185 66.0686V64.0722H58.8601V66.0686H57.185Z" fill="#ECE7E2"/>
<path d="M68.6313 66.0686V64.0722H70.3064V66.0686H68.6313Z" fill="#ECE7E2"/>
<path d="M80.0311 66.0686V64.0722H81.7062V66.0686H80.0311Z" fill="#ECE7E2"/>
<path d="M91.4775 66.0686V64.0722H93.1526V66.0686H91.4775Z" fill="#ECE7E2"/>
<path d="M102.924 66.0686V64.0722H104.599V66.0686H102.924Z" fill="#ECE7E2"/>
<path d="M114.37 66.0686V64.0722H116.045V66.0686H114.37Z" fill="#ECE7E2"/>
<path d="M125.77 66.0686V64.0722H127.445V66.0686H125.77Z" fill="#ECE7E2"/>
<path d="M137.216 66.0686V64.0722H138.891V66.0686H137.216Z" fill="#ECE7E2"/>
<path d="M148.662 66.0686V64.0722H150.338V66.0686H148.662Z" fill="#ECE7E2"/>
<path d="M160.109 66.0686V64.0722H161.784V66.0686H160.109Z" fill="#ECE7E2"/>
<path d="M171.509 66.0686V64.0722H173.184V66.0686H171.509Z" fill="#ECE7E2"/>
<path d="M182.955 66.0686V64.0722H184.63V66.0686H182.955Z" fill="#ECE7E2"/>
<path d="M194.401 66.0686V64.0722H196.076V66.0686H194.401Z" fill="#ECE7E2"/>
<path d="M205.848 66.0686V64.0722H207.523V66.0686H205.848Z" fill="#ECE7E2"/>
<path d="M217.294 66.0686V64.0722H218.969V66.0686H217.294Z" fill="#ECE7E2"/>
<path d="M228.694 66.0686V64.0722H230.369V66.0686H228.694Z" fill="#ECE7E2"/>
<path d="M240.14 66.0686V64.0722H241.815V66.0686H240.14Z" fill="#ECE7E2"/>
<path d="M251.586 66.0686V64.0722H253.261V66.0686H251.586Z" fill="#ECE7E2"/>
<path d="M263.033 66.0686V64.0722H264.708V66.0686H263.033Z" fill="#ECE7E2"/>
<path d="M274.432 66.0686V64.0722H276.107V66.0686H274.432Z" fill="#ECE7E2"/>
<path d="M285.879 66.0686V64.0722H287.554V66.0686H285.879Z" fill="#ECE7E2"/>
<path d="M297.325 66.0686V64.0722H299V66.0686H297.325Z" fill="#ECE7E2"/>
<path d="M0 76.7474V74.7509H1.67507V76.7474H0Z" fill="#ECE7E2"/>
<path d="M11.4464 76.7474V74.7509H13.1214V76.7474H11.4464Z" fill="#ECE7E2"/>
<path d="M22.8926 76.7474V74.7509H24.5677V76.7474H22.8926Z" fill="#ECE7E2"/>
<path d="M34.2924 76.7474V74.7509H35.9675V76.7474H34.2924Z" fill="#ECE7E2"/>
<path d="M45.7387 76.7474V74.7509H47.4138V76.7474H45.7387Z" fill="#ECE7E2"/>
<path d="M57.185 76.7474V74.7509H58.8601V76.7474H57.185Z" fill="#ECE7E2"/>
<path d="M68.6313 76.7474V74.7509H70.3064V76.7474H68.6313Z" fill="#ECE7E2"/>
<path d="M80.0311 76.7474V74.7509H81.7062V76.7474H80.0311Z" fill="#ECE7E2"/>
<path d="M91.4775 76.7474V74.7509H93.1526V76.7474H91.4775Z" fill="#ECE7E2"/>
<path d="M102.924 76.7474V74.7509H104.599V76.7474H102.924Z" fill="#ECE7E2"/>
<path d="M114.37 76.7474V74.7509H116.045V76.7474H114.37Z" fill="#ECE7E2"/>
<path d="M125.77 76.7474V74.7509H127.445V76.7474H125.77Z" fill="#ECE7E2"/>
<path d="M137.216 76.7474V74.7509H138.891V76.7474H137.216Z" fill="#ECE7E2"/>
<path d="M148.662 76.7474V74.7509H150.338V76.7474H148.662Z" fill="#ECE7E2"/>
<path d="M160.109 76.7474V74.7509H161.784V76.7474H160.109Z" fill="#ECE7E2"/>
<path d="M171.509 76.7474V74.7509H173.184V76.7474H171.509Z" fill="#ECE7E2"/>
<path d="M182.955 76.7474V74.7509H184.63V76.7474H182.955Z" fill="#ECE7E2"/>
<path d="M194.401 76.7474V74.7509H196.076V76.7474H194.401Z" fill="#ECE7E2"/>
<path d="M205.848 76.7474V74.7509H207.523V76.7474H205.848Z" fill="#ECE7E2"/>
<path d="M217.294 76.7474V74.7509H218.969V76.7474H217.294Z" fill="#ECE7E2"/>
<path d="M228.694 76.7474V74.7509H230.369V76.7474H228.694Z" fill="#ECE7E2"/>
<path d="M240.14 76.7474V74.7509H241.815V76.7474H240.14Z" fill="#ECE7E2"/>
<path d="M251.586 76.7474V74.7509H253.261V76.7474H251.586Z" fill="#ECE7E2"/>
<path d="M263.033 76.7474V74.7509H264.708V76.7474H263.033Z" fill="#ECE7E2"/>
<path d="M274.432 76.7474V74.7509H276.107V76.7474H274.432Z" fill="#ECE7E2"/>
<path d="M285.879 76.7474V74.7509H287.554V76.7474H285.879Z" fill="#ECE7E2"/>
<path d="M297.325 76.7474V74.7509H299V76.7474H297.325Z" fill="#ECE7E2"/>
<path d="M0 87.426V85.4296H1.67507V87.426H0Z" fill="#ECE7E2"/>
<path d="M11.4464 87.426V85.4296H13.1214V87.426H11.4464Z" fill="#ECE7E2"/>
<path d="M22.8926 87.426V85.4296H24.5677V87.426H22.8926Z" fill="#ECE7E2"/>
<path d="M34.2924 87.426V85.4296H35.9675V87.426H34.2924Z" fill="#ECE7E2"/>
<path d="M45.7387 87.426V85.4296H47.4138V87.426H45.7387Z" fill="#ECE7E2"/>
<path d="M57.185 87.426V85.4296H58.8601V87.426H57.185Z" fill="#ECE7E2"/>
<path d="M68.6313 87.426V85.4296H70.3064V87.426H68.6313Z" fill="#ECE7E2"/>
<path d="M80.0311 87.426V85.4296H81.7062V87.426H80.0311Z" fill="#ECE7E2"/>
<path d="M91.4775 87.426V85.4296H93.1526V87.426H91.4775Z" fill="#ECE7E2"/>
<path d="M102.924 87.426V85.4296H104.599V87.426H102.924Z" fill="#ECE7E2"/>
<path d="M114.37 87.426V85.4296H116.045V87.426H114.37Z" fill="#ECE7E2"/>
<path d="M125.77 87.426V85.4296H127.445V87.426H125.77Z" fill="#ECE7E2"/>
<path d="M137.216 87.426V85.4296H138.891V87.426H137.216Z" fill="#ECE7E2"/>
<path d="M148.662 87.426V85.4296H150.338V87.426H148.662Z" fill="#ECE7E2"/>
<path d="M160.109 87.426V85.4296H161.784V87.426H160.109Z" fill="#ECE7E2"/>
<path d="M171.509 87.426V85.4296H173.184V87.426H171.509Z" fill="#ECE7E2"/>
<path d="M182.955 87.426V85.4296H184.63V87.426H182.955Z" fill="#ECE7E2"/>
<path d="M194.401 87.426V85.4296H196.076V87.426H194.401Z" fill="#ECE7E2"/>
<path d="M205.848 87.426V85.4296H207.523V87.426H205.848Z" fill="#ECE7E2"/>
<path d="M217.294 87.426V85.4296H218.969V87.426H217.294Z" fill="#ECE7E2"/>
<path d="M228.694 87.426V85.4296H230.369V87.426H228.694Z" fill="#ECE7E2"/>
<path d="M240.14 87.426V85.4296H241.815V87.426H240.14Z" fill="#ECE7E2"/>
<path d="M251.586 87.426V85.4296H253.261V87.426H251.586Z" fill="#ECE7E2"/>
<path d="M263.033 87.426V85.4296H264.708V87.426H263.033Z" fill="#ECE7E2"/>
<path d="M274.432 87.426V85.4296H276.107V87.426H274.432Z" fill="#ECE7E2"/>
<path d="M285.879 87.426V85.4296H287.554V87.426H285.879Z" fill="#ECE7E2"/>
<path d="M297.325 87.426V85.4296H299V87.426H297.325Z" fill="#ECE7E2"/>
<path d="M0 98.1047V96.1083H1.67507V98.1047H0Z" fill="#ECE7E2"/>
<path d="M11.4464 98.1047V96.1083H13.1214V98.1047H11.4464Z" fill="#ECE7E2"/>
<path d="M22.8926 98.1047V96.1083H24.5677V98.1047H22.8926Z" fill="#ECE7E2"/>
<path d="M34.2924 98.1047V96.1083H35.9675V98.1047H34.2924Z" fill="#ECE7E2"/>
<path d="M45.7387 98.1047V96.1083H47.4138V98.1047H45.7387Z" fill="#ECE7E2"/>
<path d="M57.185 98.1047V96.1083H58.8601V98.1047H57.185Z" fill="#ECE7E2"/>
<path d="M68.6313 98.1047V96.1083H70.3064V98.1047H68.6313Z" fill="#ECE7E2"/>
<path d="M80.0311 98.1047V96.1083H81.7062V98.1047H80.0311Z" fill="#ECE7E2"/>
<path d="M91.4775 98.1047V96.1083H93.1526V98.1047H91.4775Z" fill="#ECE7E2"/>
<path d="M102.924 98.1047V96.1083H104.599V98.1047H102.924Z" fill="#ECE7E2"/>
<path d="M114.37 98.1047V96.1083H116.045V98.1047H114.37Z" fill="#ECE7E2"/>
<path d="M125.77 98.1047V96.1083H127.445V98.1047H125.77Z" fill="#ECE7E2"/>
<path d="M137.216 98.1047V96.1083H138.891V98.1047H137.216Z" fill="#ECE7E2"/>
<path d="M148.662 98.1047V96.1083H150.338V98.1047H148.662Z" fill="#ECE7E2"/>
<path d="M160.109 98.1047V96.1083H161.784V98.1047H160.109Z" fill="#ECE7E2"/>
<path d="M171.509 98.1047V96.1083H173.184V98.1047H171.509Z" fill="#ECE7E2"/>
<path d="M182.955 98.1047V96.1083H184.63V98.1047H182.955Z" fill="#ECE7E2"/>
<path d="M194.401 98.1047V96.1083H196.076V98.1047H194.401Z" fill="#ECE7E2"/>
<path d="M205.848 98.1047V96.1083H207.523V98.1047H205.848Z" fill="#ECE7E2"/>
<path d="M217.294 98.1047V96.1083H218.969V98.1047H217.294Z" fill="#ECE7E2"/>
<path d="M228.694 98.1047V96.1083H230.369V98.1047H228.694Z" fill="#ECE7E2"/>
<path d="M240.14 98.1047V96.1083H241.815V98.1047H240.14Z" fill="#ECE7E2"/>
<path d="M251.586 98.1047V96.1083H253.261V98.1047H251.586Z" fill="#ECE7E2"/>
<path d="M263.033 98.1047V96.1083H264.708V98.1047H263.033Z" fill="#ECE7E2"/>
<path d="M274.432 98.1047V96.1083H276.107V98.1047H274.432Z" fill="#ECE7E2"/>
<path d="M285.879 98.1047V96.1083H287.554V98.1047H285.879Z" fill="#ECE7E2"/>
<path d="M297.325 98.1047V96.1083H299V98.1047H297.325Z" fill="#ECE7E2"/>
<path d="M0 108.783V106.787H1.67507V108.783H0Z" fill="#ECE7E2"/>
<path d="M11.4464 108.783V106.787H13.1214V108.783H11.4464Z" fill="#ECE7E2"/>
<path d="M22.8926 108.783V106.787H24.5677V108.783H22.8926Z" fill="#ECE7E2"/>
<path d="M34.2924 108.783V106.787H35.9675V108.783H34.2924Z" fill="#ECE7E2"/>
<path d="M45.7387 108.783V106.787H47.4138V108.783H45.7387Z" fill="#ECE7E2"/>
<path d="M57.185 108.783V106.787H58.8601V108.783H57.185Z" fill="#ECE7E2"/>
<path d="M68.6313 108.783V106.787H70.3064V108.783H68.6313Z" fill="#ECE7E2"/>
<path d="M80.0311 108.783V106.787H81.7062V108.783H80.0311Z" fill="#ECE7E2"/>
<path d="M91.4775 108.783V106.787H93.1526V108.783H91.4775Z" fill="#ECE7E2"/>
<path d="M102.924 108.783V106.787H104.599V108.783H102.924Z" fill="#ECE7E2"/>
<path d="M114.37 108.783V106.787H116.045V108.783H114.37Z" fill="#ECE7E2"/>
<path d="M125.77 108.783V106.787H127.445V108.783H125.77Z" fill="#ECE7E2"/>
<path d="M137.216 108.783V106.787H138.891V108.783H137.216Z" fill="#ECE7E2"/>
<path d="M148.662 108.783V106.787H150.338V108.783H148.662Z" fill="#ECE7E2"/>
<path d="M160.109 108.783V106.787H161.784V108.783H160.109Z" fill="#ECE7E2"/>
<path d="M171.509 108.783V106.787H173.184V108.783H171.509Z" fill="#ECE7E2"/>
<path d="M182.955 108.783V106.787H184.63V108.783H182.955Z" fill="#ECE7E2"/>
<path d="M194.401 108.783V106.787H196.076V108.783H194.401Z" fill="#ECE7E2"/>
<path d="M205.848 108.783V106.787H207.523V108.783H205.848Z" fill="#ECE7E2"/>
<path d="M217.294 108.783V106.787H218.969V108.783H217.294Z" fill="#ECE7E2"/>
<path d="M228.694 108.783V106.787H230.369V108.783H228.694Z" fill="#ECE7E2"/>
<path d="M240.14 108.783V106.787H241.815V108.783H240.14Z" fill="#ECE7E2"/>
<path d="M251.586 108.783V106.787H253.261V108.783H251.586Z" fill="#ECE7E2"/>
<path d="M263.033 108.783V106.787H264.708V108.783H263.033Z" fill="#ECE7E2"/>
<path d="M274.432 108.783V106.787H276.107V108.783H274.432Z" fill="#ECE7E2"/>
<path d="M285.879 108.783V106.787H287.554V108.783H285.879Z" fill="#ECE7E2"/>
<path d="M297.325 108.783V106.787H299V108.783H297.325Z" fill="#ECE7E2"/>
<path d="M0 119.462V117.466H1.67507V119.462H0Z" fill="#ECE7E2"/>
<path d="M11.4464 119.462V117.466H13.1214V119.462H11.4464Z" fill="#ECE7E2"/>
<path d="M22.8926 119.462V117.466H24.5677V119.462H22.8926Z" fill="#ECE7E2"/>
<path d="M34.2924 119.462V117.466H35.9675V119.462H34.2924Z" fill="#ECE7E2"/>
<path d="M45.7387 119.462V117.466H47.4138V119.462H45.7387Z" fill="#ECE7E2"/>
<path d="M57.185 119.462V117.466H58.8601V119.462H57.185Z" fill="#ECE7E2"/>
<path d="M68.6313 119.462V117.466H70.3064V119.462H68.6313Z" fill="#ECE7E2"/>
<path d="M80.0311 119.462V117.466H81.7062V119.462H80.0311Z" fill="#ECE7E2"/>
<path d="M91.4775 119.462V117.466H93.1526V119.462H91.4775Z" fill="#ECE7E2"/>
<path d="M102.924 119.462V117.466H104.599V119.462H102.924Z" fill="#ECE7E2"/>
<path d="M114.37 119.462V117.466H116.045V119.462H114.37Z" fill="#ECE7E2"/>
<path d="M125.77 119.462V117.466H127.445V119.462H125.77Z" fill="#ECE7E2"/>
<path d="M137.216 119.462V117.466H138.891V119.462H137.216Z" fill="#ECE7E2"/>
<path d="M148.662 119.462V117.466H150.338V119.462H148.662Z" fill="#ECE7E2"/>
<path d="M160.109 119.462V117.466H161.784V119.462H160.109Z" fill="#ECE7E2"/>
<path d="M171.509 119.462V117.466H173.184V119.462H171.509Z" fill="#ECE7E2"/>
<path d="M182.955 119.462V117.466H184.63V119.462H182.955Z" fill="#ECE7E2"/>
<path d="M194.401 119.462V117.466H196.076V119.462H194.401Z" fill="#ECE7E2"/>
<path d="M205.848 119.462V117.466H207.523V119.462H205.848Z" fill="#ECE7E2"/>
<path d="M217.294 119.462V117.466H218.969V119.462H217.294Z" fill="#ECE7E2"/>
<path d="M228.694 119.462V117.466H230.369V119.462H228.694Z" fill="#ECE7E2"/>
<path d="M240.14 119.462V117.466H241.815V119.462H240.14Z" fill="#ECE7E2"/>
<path d="M251.586 119.462V117.466H253.261V119.462H251.586Z" fill="#ECE7E2"/>
<path d="M263.033 119.462V117.466H264.708V119.462H263.033Z" fill="#ECE7E2"/>
<path d="M274.432 119.462V117.466H276.107V119.462H274.432Z" fill="#ECE7E2"/>
<path d="M285.879 119.462V117.466H287.554V119.462H285.879Z" fill="#ECE7E2"/>
<path d="M297.325 119.462V117.466H299V119.462H297.325Z" fill="#ECE7E2"/>
<path d="M0 130.141V128.144H1.67507V130.141H0Z" fill="#ECE7E2"/>
<path d="M11.4464 130.141V128.144H13.1214V130.141H11.4464Z" fill="#ECE7E2"/>
<path d="M22.8926 130.141V128.144H24.5677V130.141H22.8926Z" fill="#ECE7E2"/>
<path d="M34.2924 130.141V128.144H35.9675V130.141H34.2924Z" fill="#ECE7E2"/>
<path d="M45.7387 130.141V128.144H47.4138V130.141H45.7387Z" fill="#ECE7E2"/>
<path d="M57.185 130.141V128.144H58.8601V130.141H57.185Z" fill="#ECE7E2"/>
<path d="M68.6313 130.141V128.144H70.3064V130.141H68.6313Z" fill="#ECE7E2"/>
<path d="M80.0311 130.141V128.144H81.7062V130.141H80.0311Z" fill="#ECE7E2"/>
<path d="M91.4775 130.141V128.144H93.1526V130.141H91.4775Z" fill="#ECE7E2"/>
<path d="M102.924 130.141V128.144H104.599V130.141H102.924Z" fill="#ECE7E2"/>
<path d="M114.37 130.141V128.144H116.045V130.141H114.37Z" fill="#ECE7E2"/>
<path d="M125.77 130.141V128.144H127.445V130.141H125.77Z" fill="#ECE7E2"/>
<path d="M137.216 130.141V128.144H138.891V130.141H137.216Z" fill="#ECE7E2"/>
<path d="M148.662 130.141V128.144H150.338V130.141H148.662Z" fill="#ECE7E2"/>
<path d="M160.109 130.141V128.144H161.784V130.141H160.109Z" fill="#ECE7E2"/>
<path d="M171.509 130.141V128.144H173.184V130.141H171.509Z" fill="#ECE7E2"/>
<path d="M182.955 130.141V128.144H184.63V130.141H182.955Z" fill="#ECE7E2"/>
<path d="M194.401 130.141V128.144H196.076V130.141H194.401Z" fill="#ECE7E2"/>
<path d="M205.848 130.141V128.144H207.523V130.141H205.848Z" fill="#ECE7E2"/>
<path d="M217.294 130.141V128.144H218.969V130.141H217.294Z" fill="#ECE7E2"/>
<path d="M228.694 130.141V128.144H230.369V130.141H228.694Z" fill="#ECE7E2"/>
<path d="M240.14 130.141V128.144H241.815V130.141H240.14Z" fill="#ECE7E2"/>
<path d="M251.586 130.141V128.144H253.261V130.141H251.586Z" fill="#ECE7E2"/>
<path d="M263.033 130.141V128.144H264.708V130.141H263.033Z" fill="#ECE7E2"/>
<path d="M274.432 130.141V128.144H276.107V130.141H274.432Z" fill="#ECE7E2"/>
<path d="M285.879 130.141V128.144H287.554V130.141H285.879Z" fill="#ECE7E2"/>
<path d="M297.325 130.141V128.144H299V130.141H297.325Z" fill="#ECE7E2"/>
<path d="M0 140.82V138.823H1.67507V140.82H0Z" fill="#ECE7E2"/>
<path d="M11.4464 140.82V138.823H13.1214V140.82H11.4464Z" fill="#ECE7E2"/>
<path d="M22.8926 140.82V138.823H24.5677V140.82H22.8926Z" fill="#ECE7E2"/>
<path d="M34.2924 140.82V138.823H35.9675V140.82H34.2924Z" fill="#ECE7E2"/>
<path d="M45.7387 140.82V138.823H47.4138V140.82H45.7387Z" fill="#ECE7E2"/>
<path d="M57.185 140.82V138.823H58.8601V140.82H57.185Z" fill="#ECE7E2"/>
<path d="M68.6313 140.82V138.823H70.3064V140.82H68.6313Z" fill="#ECE7E2"/>
<path d="M80.0311 140.82V138.823H81.7062V140.82H80.0311Z" fill="#ECE7E2"/>
<path d="M91.4775 140.82V138.823H93.1526V140.82H91.4775Z" fill="#ECE7E2"/>
<path d="M102.924 140.82V138.823H104.599V140.82H102.924Z" fill="#ECE7E2"/>
<path d="M114.37 140.82V138.823H116.045V140.82H114.37Z" fill="#ECE7E2"/>
<path d="M125.77 140.82V138.823H127.445V140.82H125.77Z" fill="#ECE7E2"/>
<path d="M137.216 140.82V138.823H138.891V140.82H137.216Z" fill="#ECE7E2"/>
<path d="M148.662 140.82V138.823H150.338V140.82H148.662Z" fill="#ECE7E2"/>
<path d="M160.109 140.82V138.823H161.784V140.82H160.109Z" fill="#ECE7E2"/>
<path d="M171.509 140.82V138.823H173.184V140.82H171.509Z" fill="#ECE7E2"/>
<path d="M182.955 140.82V138.823H184.63V140.82H182.955Z" fill="#ECE7E2"/>
<path d="M194.401 140.82V138.823H196.076V140.82H194.401Z" fill="#ECE7E2"/>
<path d="M205.848 140.82V138.823H207.523V140.82H205.848Z" fill="#ECE7E2"/>
<path d="M217.294 140.82V138.823H218.969V140.82H217.294Z" fill="#ECE7E2"/>
<path d="M228.694 140.82V138.823H230.369V140.82H228.694Z" fill="#ECE7E2"/>
<path d="M240.14 140.82V138.823H241.815V140.82H240.14Z" fill="#ECE7E2"/>
<path d="M251.586 140.82V138.823H253.261V140.82H251.586Z" fill="#ECE7E2"/>
<path d="M263.033 140.82V138.823H264.708V140.82H263.033Z" fill="#ECE7E2"/>
<path d="M274.432 140.82V138.823H276.107V140.82H274.432Z" fill="#ECE7E2"/>
<path d="M285.879 140.82V138.823H287.554V140.82H285.879Z" fill="#ECE7E2"/>
<path d="M297.325 140.82V138.823H299V140.82H297.325Z" fill="#ECE7E2"/>
<path d="M0 151.498V149.502H1.67507V151.498H0Z" fill="#ECE7E2"/>
<path d="M11.4464 151.498V149.502H13.1214V151.498H11.4464Z" fill="#ECE7E2"/>
<path d="M22.8926 151.498V149.502H24.5677V151.498H22.8926Z" fill="#ECE7E2"/>
<path d="M34.2924 151.498V149.502H35.9675V151.498H34.2924Z" fill="#ECE7E2"/>
<path d="M45.7387 151.498V149.502H47.4138V151.498H45.7387Z" fill="#ECE7E2"/>
<path d="M57.185 151.498V149.502H58.8601V151.498H57.185Z" fill="#ECE7E2"/>
<path d="M68.6313 151.498V149.502H70.3064V151.498H68.6313Z" fill="#ECE7E2"/>
<path d="M80.0311 151.498V149.502H81.7062V151.498H80.0311Z" fill="#ECE7E2"/>
<path d="M91.4775 151.498V149.502H93.1526V151.498H91.4775Z" fill="#ECE7E2"/>
<path d="M102.924 151.498V149.502H104.599V151.498H102.924Z" fill="#ECE7E2"/>
<path d="M114.37 151.498V149.502H116.045V151.498H114.37Z" fill="#ECE7E2"/>
<path d="M125.77 151.498V149.502H127.445V151.498H125.77Z" fill="#ECE7E2"/>
<path d="M137.216 151.498V149.502H138.891V151.498H137.216Z" fill="#ECE7E2"/>
<path d="M148.662 151.498V149.502H150.338V151.498H148.662Z" fill="#ECE7E2"/>
<path d="M160.109 151.498V149.502H161.784V151.498H160.109Z" fill="#ECE7E2"/>
<path d="M171.509 151.498V149.502H173.184V151.498H171.509Z" fill="#ECE7E2"/>
<path d="M182.955 151.498V149.502H184.63V151.498H182.955Z" fill="#ECE7E2"/>
<path d="M194.401 151.498V149.502H196.076V151.498H194.401Z" fill="#ECE7E2"/>
<path d="M205.848 151.498V149.502H207.523V151.498H205.848Z" fill="#ECE7E2"/>
<path d="M217.294 151.498V149.502H218.969V151.498H217.294Z" fill="#ECE7E2"/>
<path d="M228.694 151.498V149.502H230.369V151.498H228.694Z" fill="#ECE7E2"/>
<path d="M240.14 151.498V149.502H241.815V151.498H240.14Z" fill="#ECE7E2"/>
<path d="M251.586 151.498V149.502H253.261V151.498H251.586Z" fill="#ECE7E2"/>
<path d="M263.033 151.498V149.502H264.708V151.498H263.033Z" fill="#ECE7E2"/>
<path d="M274.432 151.498V149.502H276.107V151.498H274.432Z" fill="#ECE7E2"/>
<path d="M285.879 151.498V149.502H287.554V151.498H285.879Z" fill="#ECE7E2"/>
<path d="M297.325 151.498V149.502H299V151.498H297.325Z" fill="#ECE7E2"/>
<path d="M0 162.177V160.18H1.67507V162.177H0Z" fill="#ECE7E2"/>
<path d="M11.4464 162.177V160.18H13.1214V162.177H11.4464Z" fill="#ECE7E2"/>
<path d="M22.8926 162.177V160.18H24.5677V162.177H22.8926Z" fill="#ECE7E2"/>
<path d="M34.2924 162.177V160.18H35.9675V162.177H34.2924Z" fill="#ECE7E2"/>
<path d="M45.7387 162.177V160.18H47.4138V162.177H45.7387Z" fill="#ECE7E2"/>
<path d="M57.185 162.177V160.18H58.8601V162.177H57.185Z" fill="#ECE7E2"/>
<path d="M68.6313 162.177V160.18H70.3064V162.177H68.6313Z" fill="#ECE7E2"/>
<path d="M80.0311 162.177V160.18H81.7062V162.177H80.0311Z" fill="#ECE7E2"/>
<path d="M91.4775 162.177V160.18H93.1526V162.177H91.4775Z" fill="#ECE7E2"/>
<path d="M102.924 162.177V160.18H104.599V162.177H102.924Z" fill="#ECE7E2"/>
<path d="M114.37 162.177V160.18H116.045V162.177H114.37Z" fill="#ECE7E2"/>
<path d="M125.77 162.177V160.18H127.445V162.177H125.77Z" fill="#ECE7E2"/>
<path d="M137.216 162.177V160.18H138.891V162.177H137.216Z" fill="#ECE7E2"/>
<path d="M148.662 162.177V160.18H150.338V162.177H148.662Z" fill="#ECE7E2"/>
<path d="M160.109 162.177V160.18H161.784V162.177H160.109Z" fill="#ECE7E2"/>
<path d="M171.509 162.177V160.18H173.184V162.177H171.509Z" fill="#ECE7E2"/>
<path d="M182.955 162.177V160.18H184.63V162.177H182.955Z" fill="#ECE7E2"/>
<path d="M194.401 162.177V160.18H196.076V162.177H194.401Z" fill="#ECE7E2"/>
<path d="M205.848 162.177V160.18H207.523V162.177H205.848Z" fill="#ECE7E2"/>
<path d="M217.294 162.177V160.18H218.969V162.177H217.294Z" fill="#ECE7E2"/>
<path d="M228.694 162.177V160.18H230.369V162.177H228.694Z" fill="#ECE7E2"/>
<path d="M240.14 162.177V160.18H241.815V162.177H240.14Z" fill="#ECE7E2"/>
<path d="M251.586 162.177V160.18H253.261V162.177H251.586Z" fill="#ECE7E2"/>
<path d="M263.033 162.177V160.18H264.708V162.177H263.033Z" fill="#ECE7E2"/>
<path d="M274.432 162.177V160.18H276.107V162.177H274.432Z" fill="#ECE7E2"/>
<path d="M285.879 162.177V160.18H287.554V162.177H285.879Z" fill="#ECE7E2"/>
<path d="M297.325 162.177V160.18H299V162.177H297.325Z" fill="#ECE7E2"/>
<path d="M0 172.856V170.859H1.67507V172.856H0Z" fill="#ECE7E2"/>
<path d="M11.4464 172.856V170.859H13.1214V172.856H11.4464Z" fill="#ECE7E2"/>
<path d="M22.8926 172.856V170.859H24.5677V172.856H22.8926Z" fill="#ECE7E2"/>
<path d="M34.2924 172.856V170.859H35.9675V172.856H34.2924Z" fill="#ECE7E2"/>
<path d="M45.7387 172.856V170.859H47.4138V172.856H45.7387Z" fill="#ECE7E2"/>
<path d="M57.185 172.856V170.859H58.8601V172.856H57.185Z" fill="#ECE7E2"/>
<path d="M68.6313 172.856V170.859H70.3064V172.856H68.6313Z" fill="#ECE7E2"/>
<path d="M80.0311 172.856V170.859H81.7062V172.856H80.0311Z" fill="#ECE7E2"/>
<path d="M91.4775 172.856V170.859H93.1526V172.856H91.4775Z" fill="#ECE7E2"/>
<path d="M102.924 172.856V170.859H104.599V172.856H102.924Z" fill="#ECE7E2"/>
<path d="M114.37 172.856V170.859H116.045V172.856H114.37Z" fill="#ECE7E2"/>
<path d="M125.77 172.856V170.859H127.445V172.856H125.77Z" fill="#ECE7E2"/>
<path d="M137.216 172.856V170.859H138.891V172.856H137.216Z" fill="#ECE7E2"/>
<path d="M148.662 172.856V170.859H150.338V172.856H148.662Z" fill="#ECE7E2"/>
<path d="M160.109 172.856V170.859H161.784V172.856H160.109Z" fill="#ECE7E2"/>
<path d="M171.509 172.856V170.859H173.184V172.856H171.509Z" fill="#ECE7E2"/>
<path d="M182.955 172.856V170.859H184.63V172.856H182.955Z" fill="#ECE7E2"/>
<path d="M194.401 172.856V170.859H196.076V172.856H194.401Z" fill="#ECE7E2"/>
<path d="M205.848 172.856V170.859H207.523V172.856H205.848Z" fill="#ECE7E2"/>
<path d="M217.294 172.856V170.859H218.969V172.856H217.294Z" fill="#ECE7E2"/>
<path d="M228.694 172.856V170.859H230.369V172.856H228.694Z" fill="#ECE7E2"/>
<path d="M240.14 172.856V170.859H241.815V172.856H240.14Z" fill="#ECE7E2"/>
<path d="M251.586 172.856V170.859H253.261V172.856H251.586Z" fill="#ECE7E2"/>
<path d="M263.033 172.856V170.859H264.708V172.856H263.033Z" fill="#ECE7E2"/>
<path d="M274.432 172.856V170.859H276.107V172.856H274.432Z" fill="#ECE7E2"/>
<path d="M285.879 172.856V170.859H287.554V172.856H285.879Z" fill="#ECE7E2"/>
<path d="M297.325 172.856V170.859H299V172.856H297.325Z" fill="#ECE7E2"/>
<path d="M0 183.534V181.538H1.67507V183.534H0Z" fill="#ECE7E2"/>
<path d="M11.4464 183.534V181.538H13.1214V183.534H11.4464Z" fill="#ECE7E2"/>
<path d="M22.8926 183.534V181.538H24.5677V183.534H22.8926Z" fill="#ECE7E2"/>
<path d="M34.2924 183.534V181.538H35.9675V183.534H34.2924Z" fill="#ECE7E2"/>
<path d="M45.7387 183.534V181.538H47.4138V183.534H45.7387Z" fill="#ECE7E2"/>
<path d="M57.185 183.534V181.538H58.8601V183.534H57.185Z" fill="#ECE7E2"/>
<path d="M68.6313 183.534V181.538H70.3064V183.534H68.6313Z" fill="#ECE7E2"/>
<path d="M80.0311 183.534V181.538H81.7062V183.534H80.0311Z" fill="#ECE7E2"/>
<path d="M91.4775 183.534V181.538H93.1526V183.534H91.4775Z" fill="#ECE7E2"/>
<path d="M102.924 183.534V181.538H104.599V183.534H102.924Z" fill="#ECE7E2"/>
<path d="M114.37 183.534V181.538H116.045V183.534H114.37Z" fill="#ECE7E2"/>
<path d="M125.77 183.534V181.538H127.445V183.534H125.77Z" fill="#ECE7E2"/>
<path d="M137.216 183.534V181.538H138.891V183.534H137.216Z" fill="#ECE7E2"/>
<path d="M148.662 183.534V181.538H150.338V183.534H148.662Z" fill="#ECE7E2"/>
<path d="M160.109 183.534V181.538H161.784V183.534H160.109Z" fill="#ECE7E2"/>
<path d="M171.509 183.534V181.538H173.184V183.534H171.509Z" fill="#ECE7E2"/>
<path d="M182.955 183.534V181.538H184.63V183.534H182.955Z" fill="#ECE7E2"/>
<path d="M194.401 183.534V181.538H196.076V183.534H194.401Z" fill="#ECE7E2"/>
<path d="M205.848 183.534V181.538H207.523V183.534H205.848Z" fill="#ECE7E2"/>
<path d="M217.294 183.534V181.538H218.969V183.534H217.294Z" fill="#ECE7E2"/>
<path d="M228.694 183.534V181.538H230.369V183.534H228.694Z" fill="#ECE7E2"/>
<path d="M240.14 183.534V181.538H241.815V183.534H240.14Z" fill="#ECE7E2"/>
<path d="M251.586 183.534V181.538H253.261V183.534H251.586Z" fill="#ECE7E2"/>
<path d="M263.033 183.534V181.538H264.708V183.534H263.033Z" fill="#ECE7E2"/>
<path d="M274.432 183.534V181.538H276.107V183.534H274.432Z" fill="#ECE7E2"/>
<path d="M285.879 183.534V181.538H287.554V183.534H285.879Z" fill="#ECE7E2"/>
<path d="M297.325 183.534V181.538H299V183.534H297.325Z" fill="#ECE7E2"/>
<path d="M0 194.213V192.217H1.67507V194.213H0Z" fill="#ECE7E2"/>
<path d="M11.4464 194.213V192.217H13.1214V194.213H11.4464Z" fill="#ECE7E2"/>
<path d="M22.8926 194.213V192.217H24.5677V194.213H22.8926Z" fill="#ECE7E2"/>
<path d="M34.2924 194.213V192.217H35.9675V194.213H34.2924Z" fill="#ECE7E2"/>
<path d="M45.7387 194.213V192.217H47.4138V194.213H45.7387Z" fill="#ECE7E2"/>
<path d="M57.185 194.213V192.217H58.8601V194.213H57.185Z" fill="#ECE7E2"/>
<path d="M68.6313 194.213V192.217H70.3064V194.213H68.6313Z" fill="#ECE7E2"/>
<path d="M80.0311 194.213V192.217H81.7062V194.213H80.0311Z" fill="#ECE7E2"/>
<path d="M91.4775 194.213V192.217H93.1526V194.213H91.4775Z" fill="#ECE7E2"/>
<path d="M102.924 194.213V192.217H104.599V194.213H102.924Z" fill="#ECE7E2"/>
<path d="M114.37 194.213V192.217H116.045V194.213H114.37Z" fill="#ECE7E2"/>
<path d="M125.77 194.213V192.217H127.445V194.213H125.77Z" fill="#ECE7E2"/>
<path d="M137.216 194.213V192.217H138.891V194.213H137.216Z" fill="#ECE7E2"/>
<path d="M148.662 194.213V192.217H150.338V194.213H148.662Z" fill="#ECE7E2"/>
<path d="M160.109 194.213V192.217H161.784V194.213H160.109Z" fill="#ECE7E2"/>
<path d="M171.509 194.213V192.217H173.184V194.213H171.509Z" fill="#ECE7E2"/>
<path d="M182.955 194.213V192.217H184.63V194.213H182.955Z" fill="#ECE7E2"/>
<path d="M194.401 194.213V192.217H196.076V194.213H194.401Z" fill="#ECE7E2"/>
<path d="M205.848 194.213V192.217H207.523V194.213H205.848Z" fill="#ECE7E2"/>
<path d="M217.294 194.213V192.217H218.969V194.213H217.294Z" fill="#ECE7E2"/>
<path d="M228.694 194.213V192.217H230.369V194.213H228.694Z" fill="#ECE7E2"/>
<path d="M240.14 194.213V192.217H241.815V194.213H240.14Z" fill="#ECE7E2"/>
<path d="M251.586 194.213V192.217H253.261V194.213H251.586Z" fill="#ECE7E2"/>
<path d="M263.033 194.213V192.217H264.708V194.213H263.033Z" fill="#ECE7E2"/>
<path d="M274.432 194.213V192.217H276.107V194.213H274.432Z" fill="#ECE7E2"/>
<path d="M285.879 194.213V192.217H287.554V194.213H285.879Z" fill="#ECE7E2"/>
<path d="M297.325 194.213V192.217H299V194.213H297.325Z" fill="#ECE7E2"/>
<path d="M0 204.892V202.895H1.67507V204.892H0Z" fill="#ECE7E2"/>
<path d="M11.4464 204.892V202.895H13.1214V204.892H11.4464Z" fill="#ECE7E2"/>
<path d="M22.8926 204.892V202.895H24.5677V204.892H22.8926Z" fill="#ECE7E2"/>
<path d="M34.2924 204.892V202.895H35.9675V204.892H34.2924Z" fill="#ECE7E2"/>
<path d="M45.7387 204.892V202.895H47.4138V204.892H45.7387Z" fill="#ECE7E2"/>
<path d="M57.185 204.892V202.895H58.8601V204.892H57.185Z" fill="#ECE7E2"/>
<path d="M68.6313 204.892V202.895H70.3064V204.892H68.6313Z" fill="#ECE7E2"/>
<path d="M80.0311 204.892V202.895H81.7062V204.892H80.0311Z" fill="#ECE7E2"/>
<path d="M91.4775 204.892V202.895H93.1526V204.892H91.4775Z" fill="#ECE7E2"/>
<path d="M102.924 204.892V202.895H104.599V204.892H102.924Z" fill="#ECE7E2"/>
<path d="M114.37 204.892V202.895H116.045V204.892H114.37Z" fill="#ECE7E2"/>
<path d="M125.77 204.892V202.895H127.445V204.892H125.77Z" fill="#ECE7E2"/>
<path d="M137.216 204.892V202.895H138.891V204.892H137.216Z" fill="#ECE7E2"/>
<path d="M148.662 204.892V202.895H150.338V204.892H148.662Z" fill="#ECE7E2"/>
<path d="M160.109 204.892V202.895H161.784V204.892H160.109Z" fill="#ECE7E2"/>
<path d="M171.509 204.892V202.895H173.184V204.892H171.509Z" fill="#ECE7E2"/>
<path d="M182.955 204.892V202.895H184.63V204.892H182.955Z" fill="#ECE7E2"/>
<path d="M194.401 204.892V202.895H196.076V204.892H194.401Z" fill="#ECE7E2"/>
<path d="M205.848 204.892V202.895H207.523V204.892H205.848Z" fill="#ECE7E2"/>
<path d="M217.294 204.892V202.895H218.969V204.892H217.294Z" fill="#ECE7E2"/>
<path d="M228.694 204.892V202.895H230.369V204.892H228.694Z" fill="#ECE7E2"/>
<path d="M240.14 204.892V202.895H241.815V204.892H240.14Z" fill="#ECE7E2"/>
<path d="M251.586 204.892V202.895H253.261V204.892H251.586Z" fill="#ECE7E2"/>
<path d="M263.033 204.892V202.895H264.708V204.892H263.033Z" fill="#ECE7E2"/>
<path d="M274.432 204.892V202.895H276.107V204.892H274.432Z" fill="#ECE7E2"/>
<path d="M285.879 204.892V202.895H287.554V204.892H285.879Z" fill="#ECE7E2"/>
<path d="M297.325 204.892V202.895H299V204.892H297.325Z" fill="#ECE7E2"/>
<path d="M0 215.57V213.574H1.67507V215.57H0Z" fill="#ECE7E2"/>
<path d="M11.4464 215.57V213.574H13.1214V215.57H11.4464Z" fill="#ECE7E2"/>
<path d="M22.8926 215.57V213.574H24.5677V215.57H22.8926Z" fill="#ECE7E2"/>
<path d="M34.2924 215.57V213.574H35.9675V215.57H34.2924Z" fill="#ECE7E2"/>
<path d="M45.7387 215.57V213.574H47.4138V215.57H45.7387Z" fill="#ECE7E2"/>
<path d="M57.185 215.57V213.574H58.8601V215.57H57.185Z" fill="#ECE7E2"/>
<path d="M68.6313 215.57V213.574H70.3064V215.57H68.6313Z" fill="#ECE7E2"/>
<path d="M80.0311 215.57V213.574H81.7062V215.57H80.0311Z" fill="#ECE7E2"/>
<path d="M91.4775 215.57V213.574H93.1526V215.57H91.4775Z" fill="#ECE7E2"/>
<path d="M102.924 215.57V213.574H104.599V215.57H102.924Z" fill="#ECE7E2"/>
<path d="M114.37 215.57V213.574H116.045V215.57H114.37Z" fill="#ECE7E2"/>
<path d="M125.77 215.57V213.574H127.445V215.57H125.77Z" fill="#ECE7E2"/>
<path d="M137.216 215.57V213.574H138.891V215.57H137.216Z" fill="#ECE7E2"/>
<path d="M148.662 215.57V213.574H150.338V215.57H148.662Z" fill="#ECE7E2"/>
<path d="M160.109 215.57V213.574H161.784V215.57H160.109Z" fill="#ECE7E2"/>
<path d="M171.509 215.57V213.574H173.184V215.57H171.509Z" fill="#ECE7E2"/>
<path d="M182.955 215.57V213.574H184.63V215.57H182.955Z" fill="#ECE7E2"/>
<path d="M194.401 215.57V213.574H196.076V215.57H194.401Z" fill="#ECE7E2"/>
<path d="M205.848 215.57V213.574H207.523V215.57H205.848Z" fill="#ECE7E2"/>
<path d="M217.294 215.57V213.574H218.969V215.57H217.294Z" fill="#ECE7E2"/>
<path d="M228.694 215.57V213.574H230.369V215.57H228.694Z" fill="#ECE7E2"/>
<path d="M240.14 215.57V213.574H241.815V215.57H240.14Z" fill="#ECE7E2"/>
<path d="M251.586 215.57V213.574H253.261V215.57H251.586Z" fill="#ECE7E2"/>
<path d="M263.033 215.57V213.574H264.708V215.57H263.033Z" fill="#ECE7E2"/>
<path d="M274.432 215.57V213.574H276.107V215.57H274.432Z" fill="#ECE7E2"/>
<path d="M285.879 215.57V213.574H287.554V215.57H285.879Z" fill="#ECE7E2"/>
<path d="M297.325 215.57V213.574H299V215.57H297.325Z" fill="#ECE7E2"/>
<path d="M0 226.249V224.253H1.67507V226.249H0Z" fill="#ECE7E2"/>
<path d="M11.4464 226.249V224.253H13.1214V226.249H11.4464Z" fill="#ECE7E2"/>
<path d="M22.8926 226.249V224.253H24.5677V226.249H22.8926Z" fill="#ECE7E2"/>
<path d="M34.2924 226.249V224.253H35.9675V226.249H34.2924Z" fill="#ECE7E2"/>
<path d="M45.7387 226.249V224.253H47.4138V226.249H45.7387Z" fill="#ECE7E2"/>
<path d="M57.185 226.249V224.253H58.8601V226.249H57.185Z" fill="#ECE7E2"/>
<path d="M68.6313 226.249V224.253H70.3064V226.249H68.6313Z" fill="#ECE7E2"/>
<path d="M80.0311 226.249V224.253H81.7062V226.249H80.0311Z" fill="#ECE7E2"/>
<path d="M91.4775 226.249V224.253H93.1526V226.249H91.4775Z" fill="#ECE7E2"/>
<path d="M102.924 226.249V224.253H104.599V226.249H102.924Z" fill="#ECE7E2"/>
<path d="M114.37 226.249V224.253H116.045V226.249H114.37Z" fill="#ECE7E2"/>
<path d="M125.77 226.249V224.253H127.445V226.249H125.77Z" fill="#ECE7E2"/>
<path d="M137.216 226.249V224.253H138.891V226.249H137.216Z" fill="#ECE7E2"/>
<path d="M148.662 226.249V224.253H150.338V226.249H148.662Z" fill="#ECE7E2"/>
<path d="M160.109 226.249V224.253H161.784V226.249H160.109Z" fill="#ECE7E2"/>
<path d="M171.509 226.249V224.253H173.184V226.249H171.509Z" fill="#ECE7E2"/>
<path d="M182.955 226.249V224.253H184.63V226.249H182.955Z" fill="#ECE7E2"/>
<path d="M194.401 226.249V224.253H196.076V226.249H194.401Z" fill="#ECE7E2"/>
<path d="M205.848 226.249V224.253H207.523V226.249H205.848Z" fill="#ECE7E2"/>
<path d="M217.294 226.249V224.253H218.969V226.249H217.294Z" fill="#ECE7E2"/>
<path d="M228.694 226.249V224.253H230.369V226.249H228.694Z" fill="#ECE7E2"/>
<path d="M240.14 226.249V224.253H241.815V226.249H240.14Z" fill="#ECE7E2"/>
<path d="M251.586 226.249V224.253H253.261V226.249H251.586Z" fill="#ECE7E2"/>
<path d="M263.033 226.249V224.253H264.708V226.249H263.033Z" fill="#ECE7E2"/>
<path d="M274.432 226.249V224.253H276.107V226.249H274.432Z" fill="#ECE7E2"/>
<path d="M285.879 226.249V224.253H287.554V226.249H285.879Z" fill="#ECE7E2"/>
<path d="M297.325 226.249V224.253H299V226.249H297.325Z" fill="#ECE7E2"/>
<path d="M0 236.928V234.931H1.67507V236.928H0Z" fill="#ECE7E2"/>
<path d="M11.4464 236.928V234.931H13.1214V236.928H11.4464Z" fill="#ECE7E2"/>
<path d="M22.8926 236.928V234.931H24.5677V236.928H22.8926Z" fill="#ECE7E2"/>
<path d="M34.2924 236.928V234.931H35.9675V236.928H34.2924Z" fill="#ECE7E2"/>
<path d="M45.7387 236.928V234.931H47.4138V236.928H45.7387Z" fill="#ECE7E2"/>
<path d="M57.185 236.928V234.931H58.8601V236.928H57.185Z" fill="#ECE7E2"/>
<path d="M68.6313 236.928V234.931H70.3064V236.928H68.6313Z" fill="#ECE7E2"/>
<path d="M80.0311 236.928V234.931H81.7062V236.928H80.0311Z" fill="#ECE7E2"/>
<path d="M91.4775 236.928V234.931H93.1526V236.928H91.4775Z" fill="#ECE7E2"/>
<path d="M102.924 236.928V234.931H104.599V236.928H102.924Z" fill="#ECE7E2"/>
<path d="M114.37 236.928V234.931H116.045V236.928H114.37Z" fill="#ECE7E2"/>
<path d="M125.77 236.928V234.931H127.445V236.928H125.77Z" fill="#ECE7E2"/>
<path d="M137.216 236.928V234.931H138.891V236.928H137.216Z" fill="#ECE7E2"/>
<path d="M148.662 236.928V234.931H150.338V236.928H148.662Z" fill="#ECE7E2"/>
<path d="M160.109 236.928V234.931H161.784V236.928H160.109Z" fill="#ECE7E2"/>
<path d="M171.509 236.928V234.931H173.184V236.928H171.509Z" fill="#ECE7E2"/>
<path d="M182.955 236.928V234.931H184.63V236.928H182.955Z" fill="#ECE7E2"/>
<path d="M194.401 236.928V234.931H196.076V236.928H194.401Z" fill="#ECE7E2"/>
<path d="M205.848 236.928V234.931H207.523V236.928H205.848Z" fill="#ECE7E2"/>
<path d="M217.294 236.928V234.931H218.969V236.928H217.294Z" fill="#ECE7E2"/>
<path d="M228.694 236.928V234.931H230.369V236.928H228.694Z" fill="#ECE7E2"/>
<path d="M240.14 236.928V234.931H241.815V236.928H240.14Z" fill="#ECE7E2"/>
<path d="M251.586 236.928V234.931H253.261V236.928H251.586Z" fill="#ECE7E2"/>
<path d="M263.033 236.928V234.931H264.708V236.928H263.033Z" fill="#ECE7E2"/>
<path d="M274.432 236.928V234.931H276.107V236.928H274.432Z" fill="#ECE7E2"/>
<path d="M285.879 236.928V234.931H287.554V236.928H285.879Z" fill="#ECE7E2"/>
<path d="M297.325 236.928V234.931H299V236.928H297.325Z" fill="#ECE7E2"/>
<path d="M0 247.607V245.61H1.67507V247.607H0Z" fill="#ECE7E2"/>
<path d="M11.4464 247.607V245.61H13.1214V247.607H11.4464Z" fill="#ECE7E2"/>
<path d="M22.8926 247.607V245.61H24.5677V247.607H22.8926Z" fill="#ECE7E2"/>
<path d="M34.2924 247.607V245.61H35.9675V247.607H34.2924Z" fill="#ECE7E2"/>
<path d="M45.7387 247.607V245.61H47.4138V247.607H45.7387Z" fill="#ECE7E2"/>
<path d="M57.185 247.607V245.61H58.8601V247.607H57.185Z" fill="#ECE7E2"/>
<path d="M68.6313 247.607V245.61H70.3064V247.607H68.6313Z" fill="#ECE7E2"/>
<path d="M80.0311 247.607V245.61H81.7062V247.607H80.0311Z" fill="#ECE7E2"/>
<path d="M91.4775 247.607V245.61H93.1526V247.607H91.4775Z" fill="#ECE7E2"/>
<path d="M102.924 247.607V245.61H104.599V247.607H102.924Z" fill="#ECE7E2"/>
<path d="M114.37 247.607V245.61H116.045V247.607H114.37Z" fill="#ECE7E2"/>
<path d="M125.77 247.607V245.61H127.445V247.607H125.77Z" fill="#ECE7E2"/>
<path d="M137.216 247.607V245.61H138.891V247.607H137.216Z" fill="#ECE7E2"/>
<path d="M148.662 247.607V245.61H150.338V247.607H148.662Z" fill="#ECE7E2"/>
<path d="M160.109 247.607V245.61H161.784V247.607H160.109Z" fill="#ECE7E2"/>
<path d="M171.509 247.607V245.61H173.184V247.607H171.509Z" fill="#ECE7E2"/>
<path d="M182.955 247.607V245.61H184.63V247.607H182.955Z" fill="#ECE7E2"/>
<path d="M194.401 247.607V245.61H196.076V247.607H194.401Z" fill="#ECE7E2"/>
<path d="M205.848 247.607V245.61H207.523V247.607H205.848Z" fill="#ECE7E2"/>
<path d="M217.294 247.607V245.61H218.969V247.607H217.294Z" fill="#ECE7E2"/>
<path d="M228.694 247.607V245.61H230.369V247.607H228.694Z" fill="#ECE7E2"/>
<path d="M240.14 247.607V245.61H241.815V247.607H240.14Z" fill="#ECE7E2"/>
<path d="M251.586 247.607V245.61H253.261V247.607H251.586Z" fill="#ECE7E2"/>
<path d="M263.033 247.607V245.61H264.708V247.607H263.033Z" fill="#ECE7E2"/>
<path d="M274.432 247.607V245.61H276.107V247.607H274.432Z" fill="#ECE7E2"/>
<path d="M285.879 247.607V245.61H287.554V247.607H285.879Z" fill="#ECE7E2"/>
<path d="M297.325 247.607V245.61H299V247.607H297.325Z" fill="#ECE7E2"/>
<path d="M0 258.285V256.289H1.67507V258.285H0Z" fill="#ECE7E2"/>
<path d="M11.4464 258.285V256.289H13.1214V258.285H11.4464Z" fill="#ECE7E2"/>
<path d="M22.8926 258.285V256.289H24.5677V258.285H22.8926Z" fill="#ECE7E2"/>
<path d="M34.2924 258.285V256.289H35.9675V258.285H34.2924Z" fill="#ECE7E2"/>
<path d="M45.7387 258.285V256.289H47.4138V258.285H45.7387Z" fill="#ECE7E2"/>
<path d="M57.185 258.285V256.289H58.8601V258.285H57.185Z" fill="#ECE7E2"/>
<path d="M68.6313 258.285V256.289H70.3064V258.285H68.6313Z" fill="#ECE7E2"/>
<path d="M80.0311 258.285V256.289H81.7062V258.285H80.0311Z" fill="#ECE7E2"/>
<path d="M91.4775 258.285V256.289H93.1526V258.285H91.4775Z" fill="#ECE7E2"/>
<path d="M102.924 258.285V256.289H104.599V258.285H102.924Z" fill="#ECE7E2"/>
<path d="M114.37 258.285V256.289H116.045V258.285H114.37Z" fill="#ECE7E2"/>
<path d="M125.77 258.285V256.289H127.445V258.285H125.77Z" fill="#ECE7E2"/>
<path d="M137.216 258.285V256.289H138.891V258.285H137.216Z" fill="#ECE7E2"/>
<path d="M148.662 258.285V256.289H150.338V258.285H148.662Z" fill="#ECE7E2"/>
<path d="M160.109 258.285V256.289H161.784V258.285H160.109Z" fill="#ECE7E2"/>
<path d="M171.509 258.285V256.289H173.184V258.285H171.509Z" fill="#ECE7E2"/>
<path d="M182.955 258.285V256.289H184.63V258.285H182.955Z" fill="#ECE7E2"/>
<path d="M194.401 258.285V256.289H196.076V258.285H194.401Z" fill="#ECE7E2"/>
<path d="M205.848 258.285V256.289H207.523V258.285H205.848Z" fill="#ECE7E2"/>
<path d="M217.294 258.285V256.289H218.969V258.285H217.294Z" fill="#ECE7E2"/>
<path d="M228.694 258.285V256.289H230.369V258.285H228.694Z" fill="#ECE7E2"/>
<path d="M240.14 258.285V256.289H241.815V258.285H240.14Z" fill="#ECE7E2"/>
<path d="M251.586 258.285V256.289H253.261V258.285H251.586Z" fill="#ECE7E2"/>
<path d="M263.033 258.285V256.289H264.708V258.285H263.033Z" fill="#ECE7E2"/>
<path d="M274.432 258.285V256.289H276.107V258.285H274.432Z" fill="#ECE7E2"/>
<path d="M285.879 258.285V256.289H287.554V258.285H285.879Z" fill="#ECE7E2"/>
<path d="M297.325 258.285V256.289H299V258.285H297.325Z" fill="#ECE7E2"/>
<path d="M0 268.964V266.967H1.67507V268.964H0Z" fill="#ECE7E2"/>
<path d="M11.4464 268.964V266.967H13.1214V268.964H11.4464Z" fill="#ECE7E2"/>
<path d="M22.8926 268.964V266.967H24.5677V268.964H22.8926Z" fill="#ECE7E2"/>
<path d="M34.2924 268.964V266.967H35.9675V268.964H34.2924Z" fill="#ECE7E2"/>
<path d="M45.7387 268.964V266.967H47.4138V268.964H45.7387Z" fill="#ECE7E2"/>
<path d="M57.185 268.964V266.967H58.8601V268.964H57.185Z" fill="#ECE7E2"/>
<path d="M68.6313 268.964V266.967H70.3064V268.964H68.6313Z" fill="#ECE7E2"/>
<path d="M80.0311 268.964V266.967H81.7062V268.964H80.0311Z" fill="#ECE7E2"/>
<path d="M91.4775 268.964V266.967H93.1526V268.964H91.4775Z" fill="#ECE7E2"/>
<path d="M102.924 268.964V266.967H104.599V268.964H102.924Z" fill="#ECE7E2"/>
<path d="M114.37 268.964V266.967H116.045V268.964H114.37Z" fill="#ECE7E2"/>
<path d="M125.77 268.964V266.967H127.445V268.964H125.77Z" fill="#ECE7E2"/>
<path d="M137.216 268.964V266.967H138.891V268.964H137.216Z" fill="#ECE7E2"/>
<path d="M148.662 268.964V266.967H150.338V268.964H148.662Z" fill="#ECE7E2"/>
<path d="M160.109 268.964V266.967H161.784V268.964H160.109Z" fill="#ECE7E2"/>
<path d="M171.509 268.964V266.967H173.184V268.964H171.509Z" fill="#ECE7E2"/>
<path d="M182.955 268.964V266.967H184.63V268.964H182.955Z" fill="#ECE7E2"/>
<path d="M194.401 268.964V266.967H196.076V268.964H194.401Z" fill="#ECE7E2"/>
<path d="M205.848 268.964V266.967H207.523V268.964H205.848Z" fill="#ECE7E2"/>
<path d="M217.294 268.964V266.967H218.969V268.964H217.294Z" fill="#ECE7E2"/>
<path d="M228.694 268.964V266.967H230.369V268.964H228.694Z" fill="#ECE7E2"/>
<path d="M240.14 268.964V266.967H241.815V268.964H240.14Z" fill="#ECE7E2"/>
<path d="M251.586 268.964V266.967H253.261V268.964H251.586Z" fill="#ECE7E2"/>
<path d="M263.033 268.964V266.967H264.708V268.964H263.033Z" fill="#ECE7E2"/>
<path d="M274.432 268.964V266.967H276.107V268.964H274.432Z" fill="#ECE7E2"/>
<path d="M285.879 268.964V266.967H287.554V268.964H285.879Z" fill="#ECE7E2"/>
<path d="M297.325 268.964V266.967H299V268.964H297.325Z" fill="#ECE7E2"/>
<path d="M0 279.643V277.646H1.67507V279.643H0Z" fill="#ECE7E2"/>
<path d="M11.4464 279.643V277.646H13.1214V279.643H11.4464Z" fill="#ECE7E2"/>
<path d="M22.8926 279.643V277.646H24.5677V279.643H22.8926Z" fill="#ECE7E2"/>
<path d="M34.2924 279.643V277.646H35.9675V279.643H34.2924Z" fill="#ECE7E2"/>
<path d="M45.7387 279.643V277.646H47.4138V279.643H45.7387Z" fill="#ECE7E2"/>
<path d="M57.185 279.643V277.646H58.8601V279.643H57.185Z" fill="#ECE7E2"/>
<path d="M68.6313 279.643V277.646H70.3064V279.643H68.6313Z" fill="#ECE7E2"/>
<path d="M80.0311 279.643V277.646H81.7062V279.643H80.0311Z" fill="#ECE7E2"/>
<path d="M91.4775 279.643V277.646H93.1526V279.643H91.4775Z" fill="#ECE7E2"/>
<path d="M102.924 279.643V277.646H104.599V279.643H102.924Z" fill="#ECE7E2"/>
<path d="M114.37 279.643V277.646H116.045V279.643H114.37Z" fill="#ECE7E2"/>
<path d="M125.77 279.643V277.646H127.445V279.643H125.77Z" fill="#ECE7E2"/>
<path d="M137.216 279.643V277.646H138.891V279.643H137.216Z" fill="#ECE7E2"/>
<path d="M148.662 279.643V277.646H150.338V279.643H148.662Z" fill="#ECE7E2"/>
<path d="M160.109 279.643V277.646H161.784V279.643H160.109Z" fill="#ECE7E2"/>
<path d="M171.509 279.643V277.646H173.184V279.643H171.509Z" fill="#ECE7E2"/>
<path d="M182.955 279.643V277.646H184.63V279.643H182.955Z" fill="#ECE7E2"/>
<path d="M194.401 279.643V277.646H196.076V279.643H194.401Z" fill="#ECE7E2"/>
<path d="M205.848 279.643V277.646H207.523V279.643H205.848Z" fill="#ECE7E2"/>
<path d="M217.294 279.643V277.646H218.969V279.643H217.294Z" fill="#ECE7E2"/>
<path d="M228.694 279.643V277.646H230.369V279.643H228.694Z" fill="#ECE7E2"/>
<path d="M240.14 279.643V277.646H241.815V279.643H240.14Z" fill="#ECE7E2"/>
<path d="M251.586 279.643V277.646H253.261V279.643H251.586Z" fill="#ECE7E2"/>
<path d="M263.033 279.643V277.646H264.708V279.643H263.033Z" fill="#ECE7E2"/>
<path d="M274.432 279.643V277.646H276.107V279.643H274.432Z" fill="#ECE7E2"/>
<path d="M285.879 279.643V277.646H287.554V279.643H285.879Z" fill="#ECE7E2"/>
<path d="M297.325 279.643V277.646H299V279.643H297.325Z" fill="#ECE7E2"/>
<path d="M0 290.321V288.325H1.67507V290.321H0Z" fill="#ECE7E2"/>
<path d="M11.4464 290.321V288.325H13.1214V290.321H11.4464Z" fill="#ECE7E2"/>
<path d="M22.8926 290.321V288.325H24.5677V290.321H22.8926Z" fill="#ECE7E2"/>
<path d="M34.2924 290.321V288.325H35.9675V290.321H34.2924Z" fill="#ECE7E2"/>
<path d="M45.7387 290.321V288.325H47.4138V290.321H45.7387Z" fill="#ECE7E2"/>
<path d="M57.185 290.321V288.325H58.8601V290.321H57.185Z" fill="#ECE7E2"/>
<path d="M68.6313 290.321V288.325H70.3064V290.321H68.6313Z" fill="#ECE7E2"/>
<path d="M80.0311 290.321V288.325H81.7062V290.321H80.0311Z" fill="#ECE7E2"/>
<path d="M91.4775 290.321V288.325H93.1526V290.321H91.4775Z" fill="#ECE7E2"/>
<path d="M102.924 290.321V288.325H104.599V290.321H102.924Z" fill="#ECE7E2"/>
<path d="M114.37 290.321V288.325H116.045V290.321H114.37Z" fill="#ECE7E2"/>
<path d="M125.77 290.321V288.325H127.445V290.321H125.77Z" fill="#ECE7E2"/>
<path d="M137.216 290.321V288.325H138.891V290.321H137.216Z" fill="#ECE7E2"/>
<path d="M148.662 290.321V288.325H150.338V290.321H148.662Z" fill="#ECE7E2"/>
<path d="M160.109 290.321V288.325H161.784V290.321H160.109Z" fill="#ECE7E2"/>
<path d="M171.509 290.321V288.325H173.184V290.321H171.509Z" fill="#ECE7E2"/>
<path d="M182.955 290.321V288.325H184.63V290.321H182.955Z" fill="#ECE7E2"/>
<path d="M194.401 290.321V288.325H196.076V290.321H194.401Z" fill="#ECE7E2"/>
<path d="M205.848 290.321V288.325H207.523V290.321H205.848Z" fill="#ECE7E2"/>
<path d="M217.294 290.321V288.325H218.969V290.321H217.294Z" fill="#ECE7E2"/>
<path d="M228.694 290.321V288.325H230.369V290.321H228.694Z" fill="#ECE7E2"/>
<path d="M240.14 290.321V288.325H241.815V290.321H240.14Z" fill="#ECE7E2"/>
<path d="M251.586 290.321V288.325H253.261V290.321H251.586Z" fill="#ECE7E2"/>
<path d="M263.033 290.321V288.325H264.708V290.321H263.033Z" fill="#ECE7E2"/>
<path d="M274.432 290.321V288.325H276.107V290.321H274.432Z" fill="#ECE7E2"/>
<path d="M285.879 290.321V288.325H287.554V290.321H285.879Z" fill="#ECE7E2"/>
<path d="M297.325 290.321V288.325H299V290.321H297.325Z" fill="#ECE7E2"/>
<path d="M0 301V299.004H1.67507V301H0Z" fill="#ECE7E2"/>
<path d="M11.4464 301V299.004H13.1214V301H11.4464Z" fill="#ECE7E2"/>
<path d="M22.8926 301V299.004H24.5677V301H22.8926Z" fill="#ECE7E2"/>
<path d="M34.2924 301V299.004H35.9675V301H34.2924Z" fill="#ECE7E2"/>
<path d="M45.7387 301V299.004H47.4138V301H45.7387Z" fill="#ECE7E2"/>
<path d="M57.185 301V299.004H58.8601V301H57.185Z" fill="#ECE7E2"/>
<path d="M68.6313 301V299.004H70.3064V301H68.6313Z" fill="#ECE7E2"/>
<path d="M80.0311 301V299.004H81.7062V301H80.0311Z" fill="#ECE7E2"/>
<path d="M91.4775 301V299.004H93.1526V301H91.4775Z" fill="#ECE7E2"/>
<path d="M102.924 301V299.004H104.599V301H102.924Z" fill="#ECE7E2"/>
<path d="M114.37 301V299.004H116.045V301H114.37Z" fill="#ECE7E2"/>
<path d="M125.77 301V299.004H127.445V301H125.77Z" fill="#ECE7E2"/>
<path d="M137.216 301V299.004H138.891V301H137.216Z" fill="#ECE7E2"/>
<path d="M148.662 301V299.004H150.338V301H148.662Z" fill="#ECE7E2"/>
<path d="M160.109 301V299.004H161.784V301H160.109Z" fill="#ECE7E2"/>
<path d="M171.509 301V299.004H173.184V301H171.509Z" fill="#ECE7E2"/>
<path d="M182.955 301V299.004H184.63V301H182.955Z" fill="#ECE7E2"/>
<path d="M194.401 301V299.004H196.076V301H194.401Z" fill="#ECE7E2"/>
<path d="M205.848 301V299.004H207.523V301H205.848Z" fill="#ECE7E2"/>
<path d="M217.294 301V299.004H218.969V301H217.294Z" fill="#ECE7E2"/>
<path d="M228.694 301V299.004H230.369V301H228.694Z" fill="#ECE7E2"/>
<path d="M240.14 301V299.004H241.815V301H240.14Z" fill="#ECE7E2"/>
<path d="M251.586 301V299.004H253.261V301H251.586Z" fill="#ECE7E2"/>
<path d="M263.033 301V299.004H264.708V301H263.033Z" fill="#ECE7E2"/>
<path d="M274.432 301V299.004H276.107V301H274.432Z" fill="#ECE7E2"/>
<path d="M285.879 301V299.004H287.554V301H285.879Z" fill="#ECE7E2"/>
<path d="M297.325 301V299.004H299V301H297.325Z" fill="#ECE7E2"/>
</svg>
